<svg id="Capa_1" enable-background="new 0 0 512 512" height="512" viewBox="0 0 512 512" width="512" xmlns="http://www.w3.org/2000/svg"><circle cx="256" cy="256" fill="#8d5c4d" r="256"/><path d="m286.088 510.231c126.08-14.764 224.145-121.128 225.868-250.764l-58.818-58.818-6.77 7.772-85.999-85.999-9.226 39.627-95.09-95.09 40.85 197.403-111.459-111.46 41.737 142.601-95.32 31.745 72.167 71.771-16.344 12.808z" fill="#704639"/><path d="m256 397.786.017-.08c18.716-90.122 106.919-178.324 197.041-197.041l.08-.017-.017.08c-18.716 90.123-106.919 178.325-197.041 197.042z" fill="#0d9b50"/><path d="m255.986 397.786-.019-.085c-21.076-94.938 25.618-218.178 104.313-275.313l.07-.051.019.085c21.076 94.937-25.618 218.178-104.313 275.313z" fill="#2cc47f"/><path d="m256 397.786-.017-.08c-18.716-90.122-106.919-178.324-197.041-197.041l-.08-.017.017.08c18.716 90.123 106.919 178.325 197.041 197.042z" fill="#06bf51"/><path d="m256.014 397.786.019-.085c21.076-94.938-25.618-218.178-104.313-275.313l-.07-.051-.019.085c-21.077 94.938 25.618 218.178 104.313 275.313z" fill="#1dd882"/><path d="m256 397.786-.053-.081c-59.929-91.346-59.929-239.4 0-330.746l.053-.082.053.081c59.929 91.346 59.929 239.4 0 330.746z" fill="#02cc4a"/><path d="m256.053 66.958-.053-.081v330.909l.053-.081c59.929-91.346 59.929-239.4 0-330.747z" fill="#04af3d"/><path d="m310.618 416.816h-109.236c-11.772 0-21.316-9.543-21.316-21.316 0-11.772 9.543-21.316 21.316-21.316h109.236c11.772 0 21.316 9.543 21.316 21.316-.001 11.772-9.544 21.316-21.316 21.316z" fill="#02cc4a"/><path d="m310.618 374.184h-54.618v42.631h54.618c11.772 0 21.316-9.543 21.316-21.316-.001-11.771-9.544-21.315-21.316-21.315z" fill="#04af3d"/></svg>