<?xml version="1.0" encoding="iso-8859-1"?>
<!-- Generator: Adobe Illustrator 19.0.0, SVG Export Plug-In . SVG Version: 6.00 Build 0)  -->
<svg version="1.1" id="Layer_1" xmlns="http://www.w3.org/2000/svg" xmlns:xlink="http://www.w3.org/1999/xlink" x="0px" y="0px"
	 viewBox="0 0 512 512" style="enable-background:new 0 0 512 512;" xml:space="preserve">
<g>
	<g>
		<path d="M196.918,380.798c-2.281-1.723-5.238-2.274-7.988-1.492c-17.095,4.866-65.872,14.642-85.963,1.62
			c-9.888-6.409-4.219-35.577,13.647-72.345l26.921,15.544c2.924,1.69,6.546,1.622,9.406-0.176c2.862-1.797,4.492-5.029,4.241-8.397
			l-9.07-121c-0.227-3.006-1.923-5.705-4.533-7.211c-2.61-1.507-5.794-1.627-8.511-0.319L25.744,239.665
			c-3.044,1.466-5.027,4.495-5.153,7.87c-0.127,3.377,1.624,6.545,4.55,8.234l20.825,12.024
			c-8.596,14.397-23.74,41.576-34.167,70.39c-17.293,47.787-15.571,82.217,5.122,102.334
			c35.682,34.688,109.342,39.693,148.884,39.693c14.855-0.001,24.901-0.708,26.301-0.812c4.757-0.356,8.435-4.319,8.435-9.089
			v-82.239C200.542,385.213,199.201,382.52,196.918,380.798z M182.315,461.643L182.315,461.643
			c-11.353,0.415-32.914,0.702-56.861-1.568c-45.134-4.279-78.27-15.561-95.826-32.628c-18.798-18.275-10.75-55.256-0.688-83.06
			c12.343-34.105,31.741-65.988,37.391-74.948c1.324-2.096,1.736-4.642,1.139-7.048c-0.594-2.407-2.143-4.467-4.29-5.706
			l-13.989-8.078l81.742-39.363l6.782,90.473l-20.344-11.745c-2.154-1.243-4.717-1.552-7.107-0.858
			c-2.388,0.695-4.386,2.336-5.534,4.542c-36.082,69.294-26.265,95.111-11.677,104.567c23.982,15.544,67.926,8.358,89.262,3.538
			V461.643z"/>
	</g>
</g>
<g>
	<g>
		<path d="M455.413,238.437c-2.686-3.942-7.961-5.144-12.089-2.759l-71.221,41.12c-2.474,1.429-4.136,3.937-4.486,6.774
			c-0.352,2.836,0.65,5.675,2.701,7.664c12.763,12.374,45.617,49.723,44.384,73.637c-0.605,11.768-28.699,21.443-69.474,24.353
			v-31.087c0-3.378-1.869-6.48-4.855-8.058c-2.986-1.578-6.604-1.375-9.392,0.528l-100.254,68.355
			c-2.49,1.698-3.981,4.516-3.981,7.53c0,3.014,1.491,5.832,3.981,7.53l100.254,68.355c1.542,1.051,3.333,1.584,5.133,1.584
			c1.46,0,2.922-0.349,4.259-1.056c2.986-1.579,4.855-4.68,4.855-8.058v-24.046c16.76,0.244,47.875-0.23,78.043-5.606
			c50.032-8.917,78.987-27.625,86.063-55.603C526.116,343.223,458.308,242.684,455.413,238.437z M491.662,405.125
			c-6.428,25.419-42.48,36.938-71.588,42.127c-35.709,6.366-73.017,5.507-83.604,5.091c-2.497-0.103-4.886,0.82-6.673,2.538
			c-1.787,1.719-2.797,4.091-2.797,6.57v16.154l-74.962-51.111L327,375.383v23.493c0,2.485,1.015,4.864,2.81,6.583
			c1.793,1.719,4.205,2.628,6.7,2.522c78.054-3.398,95.504-24.808,96.398-42.171c1.469-28.539-26.728-63.004-41.567-79.071
			l53.592-30.941c6.039,9.626,17.064,28.153,27.073,50.025C490.868,347.05,497.663,381.389,491.662,405.125z"/>
	</g>
</g>
<g>
	<g>
		<path d="M397.505,109.675c-2.859-1.798-6.482-1.866-9.405-0.176l-20.825,12.022c-8.171-14.643-24.136-41.345-43.877-64.784
			c-32.739-38.871-63.418-54.6-91.185-46.73c-65.868,18.65-119.032,127.643-121.264,132.274c-2.069,4.298-0.476,9.464,3.654,11.849
			l71.221,41.12c2.474,1.431,5.48,1.613,8.111,0.499c2.632-1.114,4.59-3.4,5.287-6.172c4.334-17.239,20.253-64.366,41.578-75.255
			c10.487-5.365,32.918,14.137,55.828,47.99l-26.922,15.544c-2.926,1.689-4.677,4.857-4.55,8.233
			c0.127,3.377,2.109,6.405,5.153,7.871l109.324,52.646c1.253,0.603,2.603,0.902,3.954,0.902c1.578,0,3.151-0.409,4.557-1.221
			c2.61-1.506,4.305-4.205,4.533-7.211l9.07-121.001C401.997,114.703,400.366,111.471,397.505,109.675z M375.496,224.381
			l-81.742-39.364l20.344-11.746c2.154-1.243,3.705-3.311,4.297-5.726c0.59-2.414,0.169-4.966-1.166-7.063
			c-41.972-65.89-69.234-70.3-84.721-62.395c-25.451,12.997-41.2,54.648-47.695,75.534l-53.592-30.941
			c5.318-10.043,15.849-28.856,29.787-48.458c26.274-36.949,52.613-60.005,76.17-66.674c25.217-7.142,53.229,18.318,72.276,40.934
			c23.366,27.742,41.278,60.482,46.211,69.855c1.155,2.194,3.153,3.823,5.536,4.511c2.383,0.692,4.944,0.377,7.087-0.863
			l13.989-8.076L375.496,224.381z"/>
	</g>
</g>
<g>
</g>
<g>
</g>
<g>
</g>
<g>
</g>
<g>
</g>
<g>
</g>
<g>
</g>
<g>
</g>
<g>
</g>
<g>
</g>
<g>
</g>
<g>
</g>
<g>
</g>
<g>
</g>
<g>
</g>
</svg>
