<?xml version='1.0' encoding='utf-8'?>
<!DOCTYPE svg PUBLIC '-//W3C//DTD SVG 1.1//EN' 'http://www.w3.org/Graphics/SVG/1.1/DTD/svg11.dtd'>
<svg width="64" version="1.1" xmlns="http://www.w3.org/2000/svg" height="64" viewBox="0 0 64 64" xmlns:xlink="http://www.w3.org/1999/xlink" enable-background="new 0 0 64 64">
  <g>
    <g fill="#1D1D1B">
      <path d="M25.255,35.905L4.016,57.145V46.59c0-1.108-0.897-2.008-2.008-2.008C0.898,44.582,0,45.481,0,46.59v15.402    c0,0.261,0.053,0.521,0.155,0.767c0.203,0.492,0.594,0.882,1.086,1.087C1.486,63.947,1.747,64,2.008,64h15.403    c1.109,0,2.008-0.898,2.008-2.008s-0.898-2.008-2.008-2.008H6.855l21.238-21.24c0.784-0.784,0.784-2.055,0-2.839    S26.039,35.121,25.255,35.905z"/>
      <path d="m63.845,1.241c-0.203-0.491-0.594-0.882-1.086-1.087-0.245-0.101-0.506-0.154-0.767-0.154h-15.403c-1.109,0-2.008,0.898-2.008,2.008s0.898,2.008 2.008,2.008h10.556l-21.238,21.24c-0.784,0.784-0.784,2.055 0,2.839 0.392,0.392 0.906,0.589 1.42,0.589s1.027-0.197 1.419-0.589l21.238-21.24v10.555c0,1.108 0.897,2.008 2.008,2.008 1.109,0 2.008-0.899 2.008-2.008v-15.402c0-0.261-0.053-0.522-0.155-0.767z"/>
    </g>
  </g>
</svg>
