<?xml version="1.0" encoding="iso-8859-1"?>
<!-- Generator: Adobe Illustrator 19.0.0, SVG Export Plug-In . SVG Version: 6.00 Build 0)  -->
<svg version="1.1" id="Layer_1" xmlns="http://www.w3.org/2000/svg" xmlns:xlink="http://www.w3.org/1999/xlink" x="0px" y="0px"
	 viewBox="0 0 512 512" style="enable-background:new 0 0 512 512;" xml:space="preserve">
<g>
	<g>
		<path d="M502.35,398.166h-5.979l-24.88-266.41c-0.463-4.96-4.627-8.753-9.609-8.753h-76.244V76.7h2.808
			c5.331,0,9.65-4.321,9.65-9.65V30.549c0-5.329-4.319-9.65-9.65-9.65h-91.092c-5.331,0-9.65,4.321-9.65,9.65V67.05
			c0,5.329,4.319,9.65,9.65,9.65h2.808v46.302H289.25c-5.331,0-9.65,4.321-9.65,9.65v7.536h-47.196v-7.536
			c0-5.329-4.319-9.65-9.65-9.65h-10.911V76.7h2.806c5.331,0,9.65-4.321,9.65-9.65V30.549c0-5.329-4.319-9.65-9.65-9.65h-91.093
			c-5.331,0-9.65,4.321-9.65,9.65V67.05c0,5.329,4.319,9.65,9.65,9.65h2.808v46.302H50.118c-4.982,0-9.145,3.792-9.609,8.753
			l-24.878,266.41H9.65c-5.331,0-9.65,4.321-9.65,9.65v73.635c0,5.33,4.319,9.65,9.65,9.65h182.936c5.331,0,9.65-4.321,9.65-9.65
			v-73.635c0-5.329-4.319-9.65-9.65-9.65h-6.835l-16.511-83.5h53.512c5.331,0,9.65-4.321,9.65-9.65v-8.784h47.196v8.784
			c0,5.329,4.319,9.65,9.65,9.65h53.512l-16.511,83.5h-6.835c-5.331,0-9.65,4.321-9.65,9.65v73.635c0,5.33,4.319,9.65,9.65,9.65
			H502.35c5.331,0,9.65-4.321,9.65-9.65v-73.635C512,402.486,507.681,398.166,502.35,398.166z M133.206,40.2h71.79V57.4h-71.79V40.2
			z M192.541,76.7v46.302h-46.877V76.7H192.541z M42.788,314.947h106.836l16.456,83.218H35.016L42.788,314.947z M182.936,417.465
			v54.334H19.3v-54.334H182.936z M213.102,295.647H44.589l14.32-153.344h154.194V295.647z M279.599,276.931h-47.196v-14.312h47.196
			V276.931z M279.599,243.318h-47.196v-50.216h47.196V243.318z M279.599,173.802h-47.196V159.49c0,0,47.196,0,47.196,0V173.802z
			 M469.214,314.947l7.772,83.218H345.924l16.456-83.218H469.214z M307.004,40.2h71.791V57.4h-71.791V40.2z M366.337,76.7v46.302
			H319.46V76.7H366.337z M298.899,295.647L298.899,295.647V142.303h154.192l14.32,153.344H298.899z M492.7,471.799H329.066v-54.334
			H492.7V471.799z"/>
	</g>
</g>
<g>
</g>
<g>
</g>
<g>
</g>
<g>
</g>
<g>
</g>
<g>
</g>
<g>
</g>
<g>
</g>
<g>
</g>
<g>
</g>
<g>
</g>
<g>
</g>
<g>
</g>
<g>
</g>
<g>
</g>
</svg>
