<?xml version="1.0" encoding="iso-8859-1"?>
<!-- Generator: Adobe Illustrator 19.1.0, SVG Export Plug-In . SVG Version: 6.00 Build 0)  -->
<svg version="1.1" id="Capa_1" xmlns="http://www.w3.org/2000/svg" xmlns:xlink="http://www.w3.org/1999/xlink" x="0px" y="0px"
	 viewBox="0 0 340.127 340.127" style="enable-background:new 0 0 340.127 340.127;" xml:space="preserve">
<g>
	<g id="Speaker_1_">
		<g>
			<path d="M317.452,124.713c-0.748,0-1.451,0.295-2.177,0.431c-5.691-61.722-20.498-113.807-20.498-113.807
				s-44.171,34.784-90.701,56.688c-49.727,23.401-102.038,34.013-102.038,34.013H22.675C10.158,102.038,0,132.491,0,170.064
				s10.158,68.025,22.675,68.025h11.338v68.025c0,12.517,10.158,22.675,22.675,22.675s22.675-10.158,22.675-22.675v-68.025h22.675
				c0,0,52.244,10.567,102.038,34.013c46.439,21.859,90.701,56.688,90.701,56.688s14.852-51.813,20.521-113.807
				c0.726,0.136,1.406,0.431,2.154,0.431c12.517,0,22.675-20.294,22.675-45.35S329.969,124.713,317.452,124.713z M34.013,124.713
				h22.675v90.701H34.013V124.713z M102.038,215.414H79.363v-90.701h22.675V215.414z M283.439,294.777
				c0,0-39.545-28.276-79.363-45.35c-39.545-16.938-79.363-22.675-79.363-22.675V113.376c0,0,39.319-5.51,79.363-22.675
				c39.319-16.848,79.363-45.35,79.363-45.35c0.068,0,11.678,68.139,11.315,124.509
				C294.369,226.865,283.439,294.777,283.439,294.777z"/>
		</g>
	</g>
</g>
<g>
</g>
<g>
</g>
<g>
</g>
<g>
</g>
<g>
</g>
<g>
</g>
<g>
</g>
<g>
</g>
<g>
</g>
<g>
</g>
<g>
</g>
<g>
</g>
<g>
</g>
<g>
</g>
<g>
</g>
</svg>
