<?xml version="1.0" encoding="iso-8859-1"?>
<!-- Generator: Adobe Illustrator 16.0.0, SVG Export Plug-In . SVG Version: 6.00 Build 0)  -->
<!DOCTYPE svg PUBLIC "-//W3C//DTD SVG 1.1//EN" "http://www.w3.org/Graphics/SVG/1.1/DTD/svg11.dtd">
<svg version="1.1" id="Capa_1" xmlns="http://www.w3.org/2000/svg" xmlns:xlink="http://www.w3.org/1999/xlink" x="0px" y="0px"
	 width="612px" height="612px" viewBox="0 0 612 612" style="enable-background:new 0 0 612 612;" xml:space="preserve">
<g>
	<g id="cancel">
		<g>
			<path d="M306,0C136.992,0,0,136.992,0,306s136.992,306,306,306c168.988,0,306-136.992,306-306S475.008,0,306,0z M306,573.75
				C158.125,573.75,38.25,453.875,38.25,306C38.25,158.125,158.125,38.25,306,38.25c147.875,0,267.75,119.875,267.75,267.75
				C573.75,453.875,453.875,573.75,306,573.75z M434.425,177.576c-7.287-7.287-19.125-7.287-26.412,0L306,279.588L203.987,177.576
				c-7.287-7.287-19.125-7.287-26.412,0s-7.287,19.125,0,26.412L279.588,306L177.595,408.013c-7.287,7.287-7.287,19.125,0,26.412
				c7.287,7.286,19.125,7.286,26.412,0L306,332.412l102.013,102.013c7.287,7.286,19.125,7.286,26.412,0
				c7.286-7.287,7.286-19.125,0-26.412L332.412,306l102.013-102.013C441.711,196.701,441.711,184.881,434.425,177.576z"/>
		</g>
	</g>
</g>
<g>
</g>
<g>
</g>
<g>
</g>
<g>
</g>
<g>
</g>
<g>
</g>
<g>
</g>
<g>
</g>
<g>
</g>
<g>
</g>
<g>
</g>
<g>
</g>
<g>
</g>
<g>
</g>
<g>
</g>
</svg>
