<?xml version="1.0" encoding="iso-8859-1"?>
<!-- Generator: Adobe Illustrator 18.1.1, SVG Export Plug-In . SVG Version: 6.00 Build 0)  -->
<svg version="1.1" id="Capa_1" xmlns="http://www.w3.org/2000/svg" xmlns:xlink="http://www.w3.org/1999/xlink" x="0px" y="0px"
	 viewBox="0 0 612.816 612.816" style="enable-background:new 0 0 612.816 612.816;" xml:space="preserve">
<g>
	<path d="M306.408,0C137.368,0,0.371,136.923,0.371,305.963s136.997,306.853,306.037,306.853s306.037-136.997,306.037-306.037
		S475.374,0,306.408,0z M306.408,583.147c-152.203,0-276.368-124.165-276.368-276.368S154.205,30.411,306.408,30.411
		s276.368,124.165,276.368,276.368S458.611,583.147,306.408,583.147z M442.589,309.968c0,8.011-6.379,14.39-14.39,14.39H187.88
		c-8.011,0-14.39-6.379-14.39-14.39s6.379-14.39,14.39-14.39H428.2C436.136,295.579,442.589,301.958,442.589,309.968z"/>
</g>
<g>
</g>
<g>
</g>
<g>
</g>
<g>
</g>
<g>
</g>
<g>
</g>
<g>
</g>
<g>
</g>
<g>
</g>
<g>
</g>
<g>
</g>
<g>
</g>
<g>
</g>
<g>
</g>
<g>
</g>
</svg>
