<?xml version="1.0" encoding="iso-8859-1"?>
<!-- Generator: Adobe Illustrator 19.0.0, SVG Export Plug-In . SVG Version: 6.00 Build 0)  -->
<svg version="1.1" id="Layer_1" xmlns="http://www.w3.org/2000/svg" xmlns:xlink="http://www.w3.org/1999/xlink" x="0px" y="0px"
	 viewBox="0 0 512.118 512.118" style="enable-background:new 0 0 512.118 512.118;" xml:space="preserve">
<g transform="translate(1 1)">
	<g>
		<path d="M434.318,330.579c-22.903,0-43.609,9.508-58.067,26.483l-28.149-10.471c6.575-3.646,12.692-8.117,18.803-12.599
			l120.294-113.611c13.244-1.209,23.066-11.833,23.066-25.482c0-14.507-11.093-25.6-25.6-25.6h-27.206
			c-3.342-9.831-10.819-18.004-20.58-22.187c5.973-9.387,6.827-20.48,1.707-29.013c-5.12-7.68-14.507-13.653-29.867-11.093
			c7.68-11.093,9.387-23.893,2.56-32.427c-5.973-7.68-17.067-9.387-29.013-5.12c0-1.707,0-3.413-0.853-5.12
			c-4.267-18.773-21.333-31.573-40.96-31.573c-6.827,0-12.8,1.707-18.773,5.12c-0.853,0-1.707-0.853-1.707-0.853
			c-6.827-7.68-17.067-11.947-27.307-11.947c-18.773,0-34.133,13.653-37.547,30.72c-5.12,0-11.947,1.707-17.067,7.68
			c-5.12,5.12-6.827,12.8-5.973,22.187c-17.067-10.24-29.867-5.12-36.693,3.413c-6.827,7.68-7.68,19.627-4.267,29.867
			c-5.12,0-9.387,1.707-13.653,4.267c-11.093,7.68-17.067,24.747-17.067,36.693c-0.853,0.853-3.413,2.56-5.12,3.413
			c-2.787,1.672-5.933,3.35-8.497,5.973h-11.983c-14.507,0-25.6,11.093-25.6,25.6c0,11.786,7.322,21.318,17.848,24.48l3.486,29.28
			c0.81,6.478,2.397,12.76,4.744,18.762l-98.61-36.682c-13.653-5.12-29.013,0.853-34.987,13.653
			c-3.413,6.827-3.413,15.36-0.853,22.187s8.533,12.8,15.36,15.36l127.147,46.084v124.583c0,17.067,15.36,32.427,34.133,32.427
			c8.533,0,17.067-3.413,23.04-9.387l92.541-93.36l63.644,23.068c-0.022,0.929-0.025,1.866-0.025,2.879
			c0,42.667,34.133,76.8,76.8,76.8s77.653-34.987,77.653-77.653C511.118,364.712,476.985,330.579,434.318,330.579z M423.645,424.292
			c7.538-2.096,14.251-7.41,17.5-15.206c3.594-8.985,1.715-19.228-4.443-26.308c12.88,1.555,22.363,12.318,22.363,25.455
			c0,14.507-11.093,25.6-25.6,25.6c-7.68,0-14.507-3.413-18.773-8.533C417.788,425.537,420.811,425.158,423.645,424.292z
			 M177.465,160.766c0-8.533,5.12-19.627,10.24-24.747c2.56-1.707,3.413-0.853,4.267-0.853c4.267,1.707,15.36,5.12,20.48-2.56
			c4.267-5.973,0-12.8-2.56-16.213c-4.267-4.267-4.267-12.8-0.853-17.067c4.267-5.12,11.947-1.707,16.213,0.853l1.707,1.707
			c4.267,2.56,11.093,5.973,17.067,2.56c5.973-4.267,5.973-12.8,5.12-21.333c0-4.267,0-7.68,1.707-9.387
			c2.56-2.56,7.68-2.56,10.24-2.56s5.973,0,8.533-2.56l2.56-2.56v-3.413c0-11.947,9.387-21.333,21.333-21.333
			c5.12,0,11.093,2.56,15.36,6.827c0,0,10.24,10.24,18.773,5.12c4.267-2.56,8.533-3.413,12.8-3.413
			c11.093,0,21.333,7.68,23.893,17.92c0,0.853,0.853,4.267,0.853,7.68l3.413,4.267l3.413,3.413l0.853,0.853
			c2.56,1.707,7.68,4.267,12.8,1.707c6.827-2.56,11.093-1.707,11.947-0.853c1.707,1.707,1.707,8.533-3.413,17.067
			c-5.973,5.973-3.413,18.773-0.853,23.04l4.267,5.12l5.973-2.56c11.093-4.267,18.773-2.56,21.333,0.853
			c1.707,3.413,0,9.387-5.12,14.507c-4.267,3.413-4.267,8.533-2.56,12.8l1.707,5.12h5.12c5.12,0.853,10.24,4.267,13.653,8.533
			H174.905C176.611,166.739,177.465,164.179,177.465,160.766z M134.798,186.366h2.56h323.413h23.893c5.12,0,8.533,3.413,8.533,8.533
			s-3.413,8.533-8.533,8.533h-0.853H134.798c-5.12,0-8.533-3.413-8.533-8.533S129.678,186.366,134.798,186.366z M157.838,275.112
			c-5.973-8.533-10.24-17.92-11.093-28.16l-2.56-26.453h319.147l-108.373,99.84c-10.72,9.071-20.647,14.942-32.084,16.867
			L158.956,276.23C158.615,275.89,158.43,275.705,157.838,275.112z M16.185,260.606c-1.707-3.413-0.853-5.973,0-8.533
			c1.707-3.413,5.12-5.973,9.387-5.973c1.707,0,2.56,0,3.413,0.853l389.973,145.067c4.267,1.707,6.827,6.827,5.12,11.093
			c-0.379,0.947-0.933,1.804-1.602,2.555c-2.354,2.038-5.698,2.888-8.638,1.712l-44.373-16.213
			c-1.564-0.521-3.128-0.718-4.692-0.408l-67.804-24.575c-0.791-0.652-1.693-1.169-2.597-1.47l-35.84-12.8
			c-1.014-0.676-2.162-0.944-3.337-0.87l-63.437-22.992c-0.914-0.819-2.002-1.438-3.199-1.737l-34.133-11.947
			c-0.487-0.162-0.973-0.282-1.46-0.376l-130.807-47.41C19.598,265.726,17.038,263.166,16.185,260.606z M194.531,346.58
			l45.878,16.628l-45.878,45.878V346.58z M188.558,462.846c-3.413,2.56-6.827,4.267-11.093,4.267
			c-8.533,0-17.067-6.827-17.067-15.36V334.209l3.689,1.337l12.525,5.274v82.773c0,4.267,2.56,7.68,6.827,9.387
			s9.387,0.853,12.8-2.56l61.082-61.082l18.163,6.583L188.558,462.846z M433.465,467.966c-32.427,0-58.027-24.747-59.733-56.32
			l18.082,6.491c4.698,19.241,21.393,32.762,41.652,32.762c23.893,0,42.667-18.773,42.667-42.667
			c0-23.893-18.773-42.667-42.667-42.667c-6.814,0-13.626,1.639-20.005,5.338l-19.16-7.127
			c10.235-10.183,24.699-15.277,39.165-15.277c33.28,0,59.733,26.453,59.733,59.733
			C493.198,441.512,466.745,467.966,433.465,467.966z"/>
	</g>
</g>
<g>
</g>
<g>
</g>
<g>
</g>
<g>
</g>
<g>
</g>
<g>
</g>
<g>
</g>
<g>
</g>
<g>
</g>
<g>
</g>
<g>
</g>
<g>
</g>
<g>
</g>
<g>
</g>
<g>
</g>
</svg>
