<?xml version="1.0" encoding="iso-8859-1"?>
<!-- Generator: Adobe Illustrator 16.0.0, SVG Export Plug-In . SVG Version: 6.00 Build 0)  -->
<!DOCTYPE svg PUBLIC "-//W3C//DTD SVG 1.1//EN" "http://www.w3.org/Graphics/SVG/1.1/DTD/svg11.dtd">
<svg version="1.1" id="Capa_1" xmlns="http://www.w3.org/2000/svg" xmlns:xlink="http://www.w3.org/1999/xlink" x="0px" y="0px"
	 width="416.492px" height="416.492px" viewBox="0 0 416.492 416.492" style="enable-background:new 0 0 416.492 416.492;"
	 xml:space="preserve">
<g>
	<g>
		<g>
			<path d="M235.246,197.142h-7V65.629c0-11.046-8.954-20-20-20s-20,8.954-20,20v131.514h-7c-16.568,0-30,13.432-30,30v2.207
				c0,16.567,13.432,30,30,30h7v91.515c0,11.046,8.954,20,20,20s20-8.954,20-20V259.35h7c16.568,0,30-13.433,30-30v-2.207
				C265.246,210.574,251.814,197.142,235.246,197.142z M219.08,239.246h-21.668c-6.074,0-11-4.925-11-11s4.926-11,11-11h21.668
				c6.074,0,11,4.925,11,11S225.154,239.246,219.08,239.246z"/>
			<path d="M84,137.142h-7V65.628c0-11.046-8.955-20-20-20c-11.046,0-20,8.954-20,20v71.514h-7c-16.568,0-30,13.432-30,30v2.207
				c0,16.568,13.432,30,30,30h7v151.514c0,11.046,8.954,20,20,20c11.045,0,20-8.954,20-20V199.35h7c16.568,0,30-13.432,30-30v-2.207
				C114,150.574,100.568,137.142,84,137.142z M67.834,179.246H46.166c-6.074,0-11-4.925-11-11c0-6.075,4.926-11,11-11h21.668
				c6.074,0,11,4.925,11,11C78.834,174.321,73.908,179.246,67.834,179.246z"/>
			<path d="M386.492,107.142h-7V65.628c0-11.046-8.954-20-20-20c-11.047,0-20,8.954-20,20v41.514h-7c-16.568,0-30,13.432-30,30
				v2.207c0,16.568,13.432,30,30,30h7v181.514c0,11.046,8.953,20,20,20c11.046,0,20-8.954,20-20V169.35h7c16.567,0,30-13.432,30-30
				v-2.207C416.492,120.574,403.061,107.142,386.492,107.142z M370.326,149.246h-21.668c-6.074,0-11-4.925-11-11
				c0-6.075,4.926-11,11-11h21.668c6.074,0,11,4.925,11,11C381.326,144.321,376.4,149.246,370.326,149.246z"/>
		</g>
	</g>
</g>
<g>
</g>
<g>
</g>
<g>
</g>
<g>
</g>
<g>
</g>
<g>
</g>
<g>
</g>
<g>
</g>
<g>
</g>
<g>
</g>
<g>
</g>
<g>
</g>
<g>
</g>
<g>
</g>
<g>
</g>
</svg>
