<?xml version="1.0" encoding="iso-8859-1"?>
<!-- Generator: Adobe Illustrator 18.0.0, SVG Export Plug-In . SVG Version: 6.00 Build 0)  -->
<!DOCTYPE svg PUBLIC "-//W3C//DTD SVG 1.1//EN" "http://www.w3.org/Graphics/SVG/1.1/DTD/svg11.dtd">
<svg version="1.1" id="Capa_1" xmlns="http://www.w3.org/2000/svg" xmlns:xlink="http://www.w3.org/1999/xlink" x="0px" y="0px"
	 viewBox="0 0 190.457 190.457" style="enable-background:new 0 0 190.457 190.457;" xml:space="preserve">
<path d="M171.381,48.425h-20.822V24.85c0-4.143-3.357-7.5-7.5-7.5H7.5c-4.142,0-7.5,3.357-7.5,7.5v124.005
	c0,13.373,10.879,24.253,24.252,24.253h102.053c13.374,0,24.254-10.88,24.254-24.253v-6.822h20.822
	c10.519,0,19.076-8.557,19.076-19.075V67.5C190.457,56.981,181.899,48.425,171.381,48.425z M135.559,148.855
	c0,5.103-4.151,9.253-9.254,9.253H24.252c-5.101,0-9.252-4.15-9.252-9.253V32.35h120.559V148.855z M175.457,122.957
	c0,2.209-1.866,4.075-4.076,4.075h-20.822V63.425h20.822c2.21,0,4.076,1.866,4.076,4.075V122.957z"/>
<g>
</g>
<g>
</g>
<g>
</g>
<g>
</g>
<g>
</g>
<g>
</g>
<g>
</g>
<g>
</g>
<g>
</g>
<g>
</g>
<g>
</g>
<g>
</g>
<g>
</g>
<g>
</g>
<g>
</g>
</svg>
