<?xml version="1.0" encoding="iso-8859-1"?>
<!-- Generator: Adobe Illustrator 19.1.0, SVG Export Plug-In . SVG Version: 6.00 Build 0)  -->
<svg version="1.1" id="Capa_1" xmlns="http://www.w3.org/2000/svg" xmlns:xlink="http://www.w3.org/1999/xlink" x="0px" y="0px"
	 viewBox="0 0 362.802 362.802" style="enable-background:new 0 0 362.802 362.802;" xml:space="preserve">
<g>
	<g id="Coff&#xE9;e_2_">
		<g>
			<path d="M283.439,158.726h-22.675v-56.688c0-6.258-5.079-11.338-11.338-11.338H45.35c-6.258,0-11.338,5.079-11.338,11.338
				v204.076c0,31.314,25.373,56.688,56.688,56.688h113.376c27.414,0,50.293-19.478,55.554-45.35h1.134v-22.675h22.675
				c31.314,0,45.35-25.373,45.35-56.688v-22.675C328.79,184.099,314.754,158.726,283.439,158.726z M238.089,306.114
				c0,18.775-15.238,34.013-34.013,34.013H90.701c-18.775,0-34.013-15.238-34.013-34.013V113.376h181.401V306.114z M306.114,238.089
				c0,18.775-3.9,34.013-22.675,34.013h-22.675v-90.701h22.675c18.775,0,22.675,15.238,22.675,34.013V238.089z M226.751,0h-22.675
				v68.025h22.675V0z M158.726,0h-22.675v68.025h22.675V0z M90.701,0H68.025v68.025h22.675V0z"/>
		</g>
	</g>
</g>
<g>
</g>
<g>
</g>
<g>
</g>
<g>
</g>
<g>
</g>
<g>
</g>
<g>
</g>
<g>
</g>
<g>
</g>
<g>
</g>
<g>
</g>
<g>
</g>
<g>
</g>
<g>
</g>
<g>
</g>
</svg>
