<?xml version="1.0" encoding="iso-8859-1"?>
<!-- Generator: Adobe Illustrator 19.0.0, SVG Export Plug-In . SVG Version: 6.00 Build 0)  -->
<svg version="1.1" id="Layer_1" xmlns="http://www.w3.org/2000/svg" xmlns:xlink="http://www.w3.org/1999/xlink" x="0px" y="0px"
	 viewBox="0 0 511.999 511.999" style="enable-background:new 0 0 511.999 511.999;" xml:space="preserve">
<g>
	<g>
		<path d="M354.761,154.586c-5.926,0-11.74,0.49-17.408,1.419c16.182-18.799,25.979-43.243,25.979-69.936
			c0-4.734-3.838-8.572-8.572-8.572c-23.543,0-45.335,7.624-63.049,20.527c1.177-6.406,1.785-12.965,1.785-19.618
			c0-28.67-11.165-55.623-31.438-75.896c-3.348-3.348-8.775-3.348-12.122,0c-20.273,20.272-31.437,47.226-31.437,75.896
			c0,6.653,0.609,13.212,1.785,19.618c-17.714-12.902-39.506-20.527-63.049-20.527c-4.734,0-8.572,3.838-8.572,8.572
			c0,26.684,9.79,51.121,25.965,69.918c-5.697-0.922-11.508-1.401-17.393-1.401c-4.734,0-8.572,3.838-8.572,8.572
			c0,26.692,9.797,51.137,25.979,69.936c-5.668-0.929-11.481-1.419-17.408-1.419c-4.734,0-8.572,3.838-8.572,8.572
			c0,26.692,9.797,51.137,25.979,69.936c-5.668-0.929-11.482-1.419-17.408-1.419c-4.734,0-8.572,3.838-8.572,8.572
			c0,56.299,43.57,102.609,98.762,106.99v79.102c0,4.734,3.838,8.572,8.572,8.572s8.572-3.838,8.572-8.572v-79.102
			c55.191-4.382,98.761-50.693,98.761-106.99c0-4.734-3.838-8.572-8.572-8.572c-5.927,0-11.74,0.49-17.408,1.419
			c16.184-18.799,25.979-43.244,25.979-69.936c0-4.734-3.838-8.572-8.572-8.572c-5.926,0-11.74,0.49-17.408,1.419
			c16.182-18.799,25.979-43.244,25.979-69.936C363.333,158.424,359.495,154.586,354.761,154.586z M345.741,95.089
			c-4.245,42.544-38.18,76.479-80.723,80.723C269.263,133.269,303.199,99.333,345.741,95.089z M238.679,191.998
			c5.64,0.919,11.425,1.405,17.321,1.405c5.926,0,11.74-0.49,17.408-1.419c-7.131,8.284-13.02,17.663-17.378,27.848
			C251.755,209.802,245.933,200.423,238.679,191.998z M273.406,269.073c-7.146,8.301-13.046,17.704-17.408,27.916
			c-4.361-10.212-10.261-19.613-17.408-27.916c5.668,0.929,11.481,1.419,17.408,1.419
			C261.925,270.492,267.739,270.002,273.406,269.073z M256,21.32c13.185,16.068,20.355,36.027,20.355,57.087
			s-7.171,41.019-20.355,57.088c-13.185-16.069-20.355-36.028-20.355-57.088C235.645,57.346,242.814,37.388,256,21.32z
			 M166.257,95.089c42.543,4.245,76.478,38.18,80.723,80.723C204.437,171.567,170.502,137.631,166.257,95.089z M166.257,172.178
			c42.543,4.245,76.478,38.179,80.723,80.723C204.437,248.656,170.502,214.721,166.257,172.178z M166.257,249.266
			c42.543,4.245,76.478,38.18,80.723,80.723C204.437,325.744,170.502,291.809,166.257,249.266z M166.257,326.356
			c42.543,4.245,76.478,38.18,80.723,80.723C204.436,402.833,170.501,368.898,166.257,326.356z M255.999,374.077
			c-4.361-10.212-10.262-19.613-17.409-27.916c5.669,0.929,11.483,1.419,17.409,1.419c5.927,0,11.74-0.49,17.409-1.419
			C266.261,354.463,260.361,363.865,255.999,374.077z M345.741,326.356c-4.245,42.543-38.18,76.478-80.723,80.723
			C269.263,364.536,303.199,330.6,345.741,326.356z M345.741,249.266c-4.245,42.544-38.18,76.478-80.723,80.723
			C269.263,287.446,303.199,253.511,345.741,249.266z M265.014,252.902c2.04-20.683,11.083-39.865,25.974-54.756
			c14.891-14.89,34.071-23.932,54.755-25.974C341.501,214.723,307.563,248.661,265.014,252.902z"/>
	</g>
</g>
<g>
</g>
<g>
</g>
<g>
</g>
<g>
</g>
<g>
</g>
<g>
</g>
<g>
</g>
<g>
</g>
<g>
</g>
<g>
</g>
<g>
</g>
<g>
</g>
<g>
</g>
<g>
</g>
<g>
</g>
</svg>
