<?xml version="1.0" encoding="iso-8859-1"?>
<!-- Generator: Adobe Illustrator 19.0.0, SVG Export Plug-In . SVG Version: 6.00 Build 0)  -->
<svg version="1.1" id="Layer_1" xmlns="http://www.w3.org/2000/svg" xmlns:xlink="http://www.w3.org/1999/xlink" x="0px" y="0px"
	 viewBox="0 0 512 512" style="enable-background:new 0 0 512 512;" xml:space="preserve">
<g>
	<g>
		<path d="M487.571,82.796H359.157c6.605-8.671,10.537-19.483,10.537-31.199C369.694,23.146,346.547,0,318.097,0h-20.698
			C280.465,0,265.414,8.2,256,20.836C246.586,8.2,231.534,0,214.601,0h-20.699c-28.451,0-51.597,23.146-51.597,51.597
			c0,11.717,3.932,22.528,10.537,31.199H24.429c-5.633,0-10.199,4.567-10.199,10.199v65.978c0,5.632,4.566,10.199,10.199,10.199
			H38.81v332.629c0,5.632,4.566,10.199,10.199,10.199H462.99c5.632,0,10.199-4.567,10.199-10.199V169.172h14.382
			c5.632,0,10.199-4.567,10.199-10.199V92.995C497.77,87.363,493.203,82.796,487.571,82.796z M266.199,51.597
			c0-17.203,13.995-31.198,31.199-31.198h20.698c17.203,0,31.199,13.995,31.199,31.198S335.3,82.796,318.097,82.796h-51.898V51.597z
			 M193.902,20.398h20.699c17.204,0,31.199,13.995,31.199,31.198v31.199h-51.899c-17.203,0-31.198-13.996-31.198-31.199
			S176.699,20.398,193.902,20.398z M218.633,491.602H59.208v-322.43h159.425V491.602z M218.633,148.774H34.628v-45.579h184.005
			V148.774z M272.967,491.602h-33.936v-322.43h33.936V491.602z M272.967,148.774h-33.936v-45.579h33.936V148.774z M452.791,491.602
			H293.366v-322.43h159.425V491.602z M477.372,148.774H293.366v-45.579h184.006V148.774z"/>
	</g>
</g>
<g>
	<g>
		<path d="M428.367,357.023c-5.632,0-10.199,4.567-10.199,10.199v100.972c0,5.632,4.566,10.199,10.199,10.199
			c5.632,0,10.199-4.567,10.199-10.199V367.222C438.566,361.59,433.999,357.023,428.367,357.023z"/>
	</g>
</g>
<g>
	<g>
		<path d="M428.367,320.306c-5.632,0-10.199,4.567-10.199,10.199v5.1c0,5.632,4.566,10.199,10.199,10.199
			c5.632,0,10.199-4.567,10.199-10.199v-5.1C438.566,324.873,433.999,320.306,428.367,320.306z"/>
	</g>
</g>
<g>
</g>
<g>
</g>
<g>
</g>
<g>
</g>
<g>
</g>
<g>
</g>
<g>
</g>
<g>
</g>
<g>
</g>
<g>
</g>
<g>
</g>
<g>
</g>
<g>
</g>
<g>
</g>
<g>
</g>
</svg>
