<?xml version="1.0" encoding="iso-8859-1"?>
<!-- Generator: Adobe Illustrator 19.0.0, SVG Export Plug-In . SVG Version: 6.00 Build 0)  -->
<svg version="1.1" id="Layer_1" xmlns="http://www.w3.org/2000/svg" xmlns:xlink="http://www.w3.org/1999/xlink" x="0px" y="0px"
	 viewBox="0 0 511.998 511.998" style="enable-background:new 0 0 511.998 511.998;" xml:space="preserve">
<g>
	<g>
		<path d="M142.276,66.146c-3.982-3.982-10.438-3.983-14.422,0l-5.203,5.202c-3.983,3.982-3.983,10.439-0.001,14.422
			c1.992,1.992,4.601,2.987,7.212,2.987c2.61,0,5.219-0.995,7.21-2.987l5.203-5.202C146.259,76.585,146.259,70.128,142.276,66.146z"
			/>
	</g>
</g>
<g>
	<g>
		<path d="M233.705,21.882c-1.399-4.139-5.279-6.926-9.648-6.931l-82.05-0.106c-67.325,0-122.097,54.772-122.097,122.097v37.005
			C8.715,187.171-5.964,212.712,2.535,250.001c1.078,4.729,5.28,7.933,9.934,7.933c0.75,0,1.512-0.084,2.275-0.257
			c5.49-1.251,8.927-6.717,7.675-12.209c-6.313-27.697,3.77-46.78,11.878-56.956h37.182c31.92,0,57.591-10.262,78.479-31.373
			c16.8-16.978,30.466-41.008,43.009-75.624c9.728-26.851,37.01-48.065,37.275-48.269C233.71,30.591,235.104,26.021,233.705,21.882z
			 M173.789,74.567c-24.075,66.447-53.717,93.55-102.312,93.55H54.726l49.636-49.636c3.982-3.982,3.982-10.439,0-14.423
			c-3.983-3.981-10.438-3.981-14.423,0l-49.637,49.637v-16.754c0.001-56.078,45.625-101.701,101.69-101.701l56.539,0.073
			C189.462,45.383,179.434,58.99,173.789,74.567z"/>
	</g>
</g>
<g>
	<g>
		<path d="M375.499,20.5h-37.003C325.271,9.305,299.731-5.375,262.44,3.123c-5.491,1.252-8.928,6.717-7.676,12.209
			c1.252,5.492,6.712,8.93,12.21,7.677c27.699-6.314,46.782,3.77,56.956,11.878v37.182c0,31.92,10.262,57.59,31.373,78.479
			c16.977,16.8,41.008,30.466,75.624,43.009c26.849,9.729,48.064,37.011,48.268,37.275c1.967,2.57,4.985,4,8.099,4
			c1.089,0,2.19-0.174,3.263-0.537c4.139-1.399,6.926-5.278,6.932-9.647l0.106-82.05C497.596,75.272,442.823,20.5,375.499,20.5z
			 M477.128,199.123c-10.067-9.07-23.676-19.098-39.253-24.742c-66.445-24.076-93.549-53.718-93.549-102.312V55.318l49.636,49.636
			c1.992,1.992,4.601,2.987,7.211,2.987s5.219-0.995,7.211-2.987c3.982-3.982,3.982-10.439,0-14.423l-49.636-49.636H375.5
			c56.078,0,101.702,45.623,101.702,101.687L477.128,199.123z"/>
	</g>
</g>
<g>
	<g>
		<path d="M509.463,261.997c-1.251-5.49-6.713-8.93-12.21-7.676c-5.491,1.252-8.928,6.718-7.676,12.21
			c6.313,27.697-3.77,46.78-11.878,56.956h-37.182c-31.92,0-57.59,10.262-78.479,31.373c-16.8,16.978-30.466,41.008-43.009,75.624
			c-9.728,26.851-37.01,48.065-37.275,48.269c-3.468,2.656-4.862,7.225-3.463,11.364c1.399,4.139,5.279,6.926,9.648,6.931
			l82.05,0.106c67.325,0,122.097-54.772,122.097-122.097v-37.005C503.282,324.826,517.963,299.286,509.463,261.997z
			 M471.693,375.058c0,56.077-45.625,101.701-101.689,101.701l-56.539-0.073c9.07-10.068,19.098-23.676,24.743-39.253
			c24.075-66.447,53.717-93.55,102.311-93.55h16.752l-49.636,49.636c-3.982,3.982-3.982,10.439,0,14.423
			c1.992,1.991,4.601,2.987,7.211,2.987s5.219-0.996,7.211-2.987l49.637-49.637V375.058z"/>
	</g>
</g>
<g>
	<g>
		<path d="M257.231,496.665c-1.25-5.49-6.713-8.931-12.209-7.676c-27.699,6.314-46.782-3.77-56.957-11.878V439.93
			c0-31.92-10.262-57.591-31.373-78.479c-16.977-16.8-41.008-30.466-75.624-43.009c-26.85-9.729-48.064-37.01-48.268-37.275
			c-2.656-3.468-7.224-4.864-11.363-3.462c-4.139,1.399-6.926,5.278-6.932,9.647l-0.106,82.05
			c0,67.325,54.773,122.097,122.097,122.097H173.5c10.469,8.864,28.655,19.912,54.289,19.911c6.741,0,14.001-0.765,21.767-2.535
			C255.047,507.622,258.483,502.157,257.231,496.665z M167.67,456.681l-49.636-49.636c-3.983-3.982-10.438-3.982-14.423,0
			c-3.982,3.982-3.982,10.439,0,14.423l49.636,49.636h-16.752c-56.077,0-101.701-45.624-101.701-101.688l0.073-56.54
			c10.067,9.07,23.676,19.098,39.253,24.742c66.445,24.076,93.549,53.718,93.549,102.313V456.681z"/>
	</g>
</g>
<g>
</g>
<g>
</g>
<g>
</g>
<g>
</g>
<g>
</g>
<g>
</g>
<g>
</g>
<g>
</g>
<g>
</g>
<g>
</g>
<g>
</g>
<g>
</g>
<g>
</g>
<g>
</g>
<g>
</g>
</svg>
