<?xml version="1.0" encoding="iso-8859-1"?>
<!-- Generator: Adobe Illustrator 19.0.0, SVG Export Plug-In . SVG Version: 6.00 Build 0)  -->
<svg version="1.1" id="Layer_1" xmlns="http://www.w3.org/2000/svg" xmlns:xlink="http://www.w3.org/1999/xlink" x="0px" y="0px"
	 viewBox="0 0 503.607 503.607" style="enable-background:new 0 0 503.607 503.607;" xml:space="preserve">
<g transform="translate(1 1)">
	<g>
		<g>
			<path d="M385.098,57.754h-41.967v-8.393c0-9.233-7.554-16.787-16.787-16.787h-25.18V24.18c0-14.269-10.911-25.18-25.18-25.18
				h-50.361c-14.269,0-25.18,11.751-25.18,25.18v8.393h-25.18c-9.233,0-16.787,7.554-16.787,16.787v8.393h-41.967
				c-23.502,0-41.967,18.466-41.967,41.967v360.918c0,23.502,18.466,41.967,41.967,41.967h268.59
				c23.502,0,41.967-18.466,41.967-41.967V99.721C427.066,76.22,408.6,57.754,385.098,57.754z M175.262,49.361h33.574
				c5.036,0,8.393-3.357,8.393-8.393V24.18c0-5.036,3.357-8.393,8.393-8.393h50.361c5.036,0,8.393,4.197,8.393,8.393v16.787
				c0,5.036,3.357,8.393,8.393,8.393h33.574v16.787v41.967H175.262V66.148V49.361z M410.279,460.639
				c0,14.269-10.911,25.18-25.18,25.18h-268.59c-14.269,0-25.18-10.911-25.18-25.18V99.721c0-14.269,10.911-25.18,25.18-25.18
				h41.967v33.574c0,9.233,7.554,16.787,16.787,16.787h151.082c9.233,0,16.787-7.554,16.787-16.787V74.541h41.967
				c14.269,0,25.18,10.911,25.18,25.18V460.639z"/>
			<path d="M133.295,334.738h100.721c5.036,0,8.393-3.357,8.393-8.393c0-5.036-3.357-8.393-8.393-8.393H133.295
				c-5.036,0-8.393,3.357-8.393,8.393C124.902,331.38,128.259,334.738,133.295,334.738z"/>
			<path d="M334.738,317.951H267.59c-5.036,0-8.393,3.357-8.393,8.393c0,5.036,3.357,8.393,8.393,8.393h67.148
				c5.036,0,8.393-3.357,8.393-8.393C343.131,321.308,339.774,317.951,334.738,317.951z"/>
			<path d="M309.557,385.098H208.836c-5.036,0-8.393,3.357-8.393,8.393c0,5.036,3.357,8.393,8.393,8.393h100.721
				c5.036,0,8.393-3.357,8.393-8.393C317.951,388.456,314.593,385.098,309.557,385.098z"/>
			<path d="M133.295,200.443h50.361c5.036,0,8.393-3.357,8.393-8.393s-3.357-8.393-8.393-8.393h-50.361
				c-5.036,0-8.393,3.357-8.393,8.393S128.259,200.443,133.295,200.443z"/>
			<path d="M217.229,200.443h41.967c5.036,0,8.393-3.357,8.393-8.393s-3.357-8.393-8.393-8.393h-41.967
				c-5.036,0-8.393,3.357-8.393,8.393S212.193,200.443,217.229,200.443z"/>
			<path d="M368.311,183.656H292.77c-5.036,0-8.393,3.357-8.393,8.393s3.357,8.393,8.393,8.393h75.541
				c5.036,0,8.393-3.357,8.393-8.393S373.348,183.656,368.311,183.656z"/>
			<path d="M133.295,267.59h83.934c5.036,0,8.393-3.357,8.393-8.393c0-5.036-3.357-8.393-8.393-8.393h-83.934
				c-5.036,0-8.393,3.357-8.393,8.393C124.902,264.233,128.259,267.59,133.295,267.59z"/>
			<path d="M175.262,385.098h-41.967c-5.036,0-8.393,3.357-8.393,8.393c0,5.036,3.357,8.393,8.393,8.393h41.967
				c5.036,0,8.393-3.357,8.393-8.393C183.656,388.456,180.298,385.098,175.262,385.098z"/>
			<path d="M351.525,250.803H250.803c-5.036,0-8.393,3.357-8.393,8.393c0,5.036,3.357,8.393,8.393,8.393h100.721
				c5.036,0,8.393-3.357,8.393-8.393C359.918,254.161,356.561,250.803,351.525,250.803z"/>
		</g>
	</g>
</g>
<g>
</g>
<g>
</g>
<g>
</g>
<g>
</g>
<g>
</g>
<g>
</g>
<g>
</g>
<g>
</g>
<g>
</g>
<g>
</g>
<g>
</g>
<g>
</g>
<g>
</g>
<g>
</g>
<g>
</g>
</svg>
