<?xml version="1.0" encoding="iso-8859-1"?>
<!-- Generator: Adobe Illustrator 19.0.0, SVG Export Plug-In . SVG Version: 6.00 Build 0)  -->
<svg version="1.1" id="Layer_1" xmlns="http://www.w3.org/2000/svg" xmlns:xlink="http://www.w3.org/1999/xlink" x="0px" y="0px"
	 viewBox="0 0 360.005 360.005" style="enable-background:new 0 0 360.005 360.005;" xml:space="preserve">
<g id="XMLID_510_">
	<path id="XMLID_511_" d="M196.001,275.651l-16-7.826l-16.008,7.829c-6.124,2.994-12.956,4.576-19.758,4.576
		c-15.001,0-28.801-7.408-37.126-19.598v84.372c0,5.198,2.691,10.025,7.113,12.76c2.409,1.488,5.144,2.24,7.888,2.24
		c2.291,0,4.589-0.525,6.705-1.582l51.185-25.585l51.181,25.584c4.65,2.323,10.171,2.075,14.594-0.657
		c4.422-2.733,7.113-7.561,7.113-12.76v-84.369c-8.329,12.189-22.128,19.596-37.126,19.596
		C208.962,280.231,202.13,278.648,196.001,275.651z"/>
	<g id="XMLID_512_">
		<path id="XMLID_515_" d="M49.277,123.877c-0.342,4.162,1.041,8.44,4.163,11.666l22.593,23.349v0.001l-4.551,32.182
			c-0.07,0.501-0.116,1-0.137,1.496c-0.307,7.426,4.928,14.069,12.399,15.379l32.005,5.61l15.227,28.699
			c2.686,5.064,7.875,7.972,13.259,7.972c2.215,0,4.463-0.492,6.581-1.528l29.186-14.273l29.181,14.273
			c2.119,1.037,4.366,1.529,6.58,1.529c5.383,0,10.573-2.908,13.261-7.971l15.232-28.701l32.002-5.61
			c7.472-1.31,12.706-7.954,12.399-15.38c-0.02-0.496-0.066-0.995-0.137-1.496l-4.554-32.181v-0.001l22.593-23.349
			c2.813-2.907,4.219-6.668,4.219-10.429c0.001-3.762-1.406-7.523-4.219-10.431L283.968,91.33v-0.001l4.552-32.163
			c0.071-0.501,0.116-0.999,0.137-1.494c0.31-7.428-4.926-14.073-12.398-15.383l-32.002-5.609L229.024,7.973
			c-0.214-0.402-0.448-0.785-0.691-1.159c-0.063-0.097-0.128-0.191-0.192-0.286c-0.209-0.305-0.426-0.601-0.654-0.886
			c-0.051-0.063-0.098-0.129-0.149-0.192c-0.278-0.336-0.569-0.658-0.872-0.966c-0.063-0.065-0.131-0.127-0.196-0.191
			c-0.253-0.248-0.514-0.486-0.782-0.714c-0.08-0.067-0.158-0.136-0.239-0.202c-0.335-0.272-0.677-0.533-1.03-0.773
			c-0.018-0.012-0.035-0.022-0.053-0.033c-0.338-0.228-0.686-0.438-1.039-0.636c-0.091-0.051-0.183-0.101-0.275-0.15
			c-0.333-0.178-0.672-0.345-1.018-0.498c-0.045-0.02-0.09-0.043-0.136-0.063c-0.394-0.168-0.794-0.318-1.198-0.453
			c-0.085-0.028-0.171-0.052-0.256-0.079c-0.338-0.105-0.68-0.199-1.025-0.28c-0.087-0.021-0.174-0.044-0.263-0.063
			c-0.418-0.091-0.84-0.167-1.266-0.222c-0.045-0.006-0.091-0.008-0.136-0.014c-0.38-0.046-0.763-0.075-1.146-0.091
			c-0.104-0.004-0.207-0.008-0.312-0.01C215.984,0.009,215.874,0,215.763,0c-0.134,0-0.268,0.019-0.402,0.023
			c-0.311,0.008-0.62,0.024-0.931,0.052c-0.216,0.02-0.433,0.043-0.649,0.072c-0.311,0.042-0.62,0.097-0.93,0.158
			c-0.211,0.042-0.422,0.082-0.631,0.134c-0.328,0.08-0.654,0.18-0.98,0.284c-0.186,0.059-0.374,0.109-0.56,0.177
			c-0.452,0.164-0.9,0.353-1.343,0.563c-0.05,0.024-0.102,0.039-0.151,0.064l-29.185,14.265L150.814,1.527
			c-0.051-0.025-0.104-0.041-0.154-0.065c-0.441-0.209-0.887-0.398-1.337-0.561c-0.192-0.07-0.387-0.122-0.58-0.184
			c-0.316-0.101-0.634-0.198-0.954-0.276c-0.218-0.054-0.438-0.096-0.656-0.139c-0.299-0.059-0.599-0.112-0.898-0.153
			c-0.227-0.03-0.453-0.056-0.68-0.076c-0.297-0.026-0.592-0.041-0.889-0.05C144.523,0.02,144.378,0,144.236,0
			c-0.118,0-0.236,0.009-0.354,0.012c-0.086,0.002-0.173,0.005-0.259,0.009c-0.416,0.017-0.83,0.048-1.241,0.099
			c-0.017,0.002-0.032,0.003-0.049,0.005c-0.44,0.057-0.878,0.135-1.311,0.23c-0.065,0.014-0.129,0.031-0.193,0.046
			c-0.376,0.088-0.749,0.19-1.117,0.307c-0.061,0.019-0.122,0.036-0.183,0.057c-0.422,0.139-0.838,0.294-1.246,0.47
			c-0.015,0.007-0.029,0.015-0.045,0.021c-0.381,0.165-0.754,0.351-1.121,0.548c-0.07,0.038-0.142,0.076-0.212,0.115
			c-0.763,0.426-1.49,0.919-2.173,1.477c-0.064,0.051-0.125,0.105-0.188,0.158c-0.291,0.247-0.574,0.504-0.848,0.774
			c-0.049,0.048-0.1,0.094-0.147,0.143c-0.312,0.316-0.61,0.647-0.896,0.993c-0.04,0.049-0.077,0.1-0.116,0.149
			c-0.24,0.299-0.468,0.61-0.687,0.931c-0.061,0.087-0.121,0.175-0.179,0.264c-0.245,0.377-0.481,0.763-0.696,1.168L115.748,36.68
			l-32.004,5.609c-7.472,1.31-12.708,7.954-12.399,15.382c0.021,0.495,0.066,0.993,0.137,1.494l4.551,32.164l-22.594,23.353
			C50.934,117.271,49.551,120.537,49.277,123.877z M180.001,69.979c30.328,0,55,24.675,55,55c0,30.327-24.672,55-55,55
			c-30.33,0-55.004-24.673-55.004-55C124.997,94.653,149.671,69.979,180.001,69.979z"/>
	</g>
</g>
<g>
</g>
<g>
</g>
<g>
</g>
<g>
</g>
<g>
</g>
<g>
</g>
<g>
</g>
<g>
</g>
<g>
</g>
<g>
</g>
<g>
</g>
<g>
</g>
<g>
</g>
<g>
</g>
<g>
</g>
</svg>
