<?xml version="1.0" encoding="iso-8859-1"?>
<!-- Generator: Adobe Illustrator 19.0.0, SVG Export Plug-In . SVG Version: 6.00 Build 0)  -->
<svg version="1.1" id="Layer_1" xmlns="http://www.w3.org/2000/svg" xmlns:xlink="http://www.w3.org/1999/xlink" x="0px" y="0px"
	 viewBox="0 0 512 512" style="enable-background:new 0 0 512 512;" xml:space="preserve">
<g>
	<g>
		<path d="M495.598,210.289l-59.792-52.858V61.915c0-5.189-4.206-9.395-9.395-9.395H322.126l-49.03-45.312
			c-10.412-9.612-26.722-9.611-37.137,0.004L186.933,52.52H82.647c-5.189,0-9.395,4.206-9.395,9.395v95.648l-57.017,52.874
			c-1.918,1.778-3.006,4.274-3.006,6.89v285.278c0,5.189,4.206,9.395,9.395,9.395h466.752c5.189,0,9.395-4.206,9.395-9.395V217.327
			C498.771,214.635,497.616,212.071,495.598,210.289z M435.806,182.509l39.066,34.536l-39.066,31.927V182.509z M248.71,21.014
			c3.317-3.063,8.322-3.064,11.637-0.003l34.094,31.509h-79.821L248.71,21.014z M92.045,71.31h324.971v193.019l-115.727,94.577
			l-20.604-18.923c-14.08-12.906-35.313-12.895-49.396,0.033l-21.918,20.138L92.045,262.865V71.31z M73.255,183.189v64.093
			l-36.489-30.257L73.255,183.189z M32.019,493.21V237.499l163.387,135.485l-13.473,12.378L64.51,493.21H32.019z M92.288,493.21
			l102.358-94.01l49.352-45.344c6.84-6.278,17.153-6.287,23.983-0.026L419.741,493.21H92.288z M479.98,493.21L479.98,493.21H447.52
			L315.269,371.748L479.98,237.138V493.21z"/>
	</g>
</g>
<g>
	<g>
		<path d="M385.439,123.405h-48.476c-5.189,0-9.395,4.207-9.395,9.395s4.206,9.395,9.395,9.395h48.476
			c5.189,0,9.395-4.206,9.395-9.395S390.627,123.405,385.439,123.405z"/>
	</g>
</g>
<g>
	<g>
		<path d="M284.081,123.405H123.611c-5.189,0-9.395,4.207-9.395,9.395s4.206,9.395,9.395,9.395h160.469
			c5.189,0,9.395-4.206,9.395-9.395S289.269,123.405,284.081,123.405z"/>
	</g>
</g>
<g>
	<g>
		<path d="M385.44,165.668H255.433c-5.189,0-9.395,4.206-9.395,9.395s4.206,9.395,9.395,9.395h130.006
			c5.189,0,9.395-4.206,9.395-9.395S390.629,165.668,385.44,165.668z"/>
	</g>
</g>
<g>
	<g>
		<path d="M206.957,165.668h-83.346c-5.189,0-9.395,4.206-9.395,9.395s4.206,9.395,9.395,9.395h83.346
			c5.189,0,9.395-4.206,9.395-9.395S212.146,165.668,206.957,165.668z"/>
	</g>
</g>
<g>
	<g>
		<path d="M385.44,211.177h-48.476c-5.189,0-9.395,4.206-9.395,9.395s4.206,9.395,9.395,9.395h48.476
			c5.189,0,9.395-4.207,9.395-9.395S390.629,211.177,385.44,211.177z"/>
	</g>
</g>
<g>
	<g>
		<path d="M284.081,211.177H123.611c-5.189,0-9.395,4.206-9.395,9.395s4.206,9.395,9.395,9.395h160.469
			c5.189,0,9.395-4.207,9.395-9.395S289.269,211.177,284.081,211.177z"/>
	</g>
</g>
<g>
	<g>
		<path d="M385.44,253.441H255.433c-5.189,0-9.395,4.206-9.395,9.395s4.206,9.395,9.395,9.395h130.006
			c5.189,0,9.395-4.206,9.395-9.395S390.629,253.441,385.44,253.441z"/>
	</g>
</g>
<g>
	<g>
		<path d="M206.957,253.441h-83.346c-5.189,0-9.395,4.206-9.395,9.395s4.206,9.395,9.395,9.395h83.346
			c5.189,0,9.395-4.206,9.395-9.395S212.146,253.441,206.957,253.441z"/>
	</g>
</g>
<g>
</g>
<g>
</g>
<g>
</g>
<g>
</g>
<g>
</g>
<g>
</g>
<g>
</g>
<g>
</g>
<g>
</g>
<g>
</g>
<g>
</g>
<g>
</g>
<g>
</g>
<g>
</g>
<g>
</g>
</svg>
