<?xml version="1.0" encoding="iso-8859-1"?>
<!-- Generator: Adobe Illustrator 19.0.0, SVG Export Plug-In . SVG Version: 6.00 Build 0)  -->
<svg version="1.1" id="Layer_1" xmlns="http://www.w3.org/2000/svg" xmlns:xlink="http://www.w3.org/1999/xlink" x="0px" y="0px"
	 viewBox="0 0 512 512" style="enable-background:new 0 0 512 512;" xml:space="preserve">
<g>
	<g>
		<path d="M365.693,83.649h-3.959c-5.632,0-10.199,4.567-10.199,10.199s4.566,10.199,10.199,10.199h3.959
			c5.632,0,10.199-4.567,10.199-10.199S371.325,83.649,365.693,83.649z"/>
	</g>
</g>
<g>
	<g>
		<path d="M315.066,83.649H149.023c-5.633,0-10.199,4.567-10.199,10.199s4.566,10.199,10.199,10.199h166.043
			c5.632,0,10.199-4.567,10.199-10.199S320.698,83.649,315.066,83.649z"/>
	</g>
</g>
<g>
	<g>
		<path d="M365.693,144.057H149.023c-5.633,0-10.199,4.567-10.199,10.199s4.566,10.199,10.199,10.199h216.671
			c5.632,0,10.199-4.567,10.199-10.199S371.325,144.057,365.693,144.057z"/>
	</g>
</g>
<g>
	<g>
		<path d="M365.693,204.467H149.023c-5.633,0-10.199,4.567-10.199,10.199c0,5.632,4.566,10.199,10.199,10.199h216.671
			c5.632,0,10.199-4.567,10.199-10.199C375.893,209.034,371.325,204.467,365.693,204.467z"/>
	</g>
</g>
<g>
	<g>
		<path d="M511.981,212.03c0-3.211-1.494-6.25-4.088-8.181l-64.014-47.67V28.021c0-5.632-4.567-10.199-10.199-10.199H81.037
			c-5.633,0-10.199,4.567-10.199,10.199v126.137l-66.73,49.692c-2.592,1.93-4.086,4.968-4.088,8.177
			C0.016,212.027,0,212.03,0,212.03v271.95c0,5.632,4.566,10.199,10.199,10.199h491.602c5.632,0,10.199-4.567,10.199-10.199V212.03
			H511.981z M443.878,181.612l39.409,29.348l-39.409,22.806V181.612z M91.236,38.22H423.48v207.352L256,342.496L91.236,247.144
			V38.22z M70.838,179.59v55.748L28.713,210.96L70.838,179.59z M20.398,229.716l144.797,83.797L20.398,458.31V229.716z
			 M33.778,473.78l149.691-149.692l67.423,39.019c1.555,0.9,3.288,1.351,5.024,1.366c0.029,0,0.056,0.005,0.084,0.005
			s0.055-0.005,0.082-0.005c1.737-0.013,3.471-0.465,5.026-1.366l67.423-39.019L478.221,473.78H33.778z M491.602,458.31
			L346.805,313.513l144.797-83.797V458.31z"/>
	</g>
</g>
<g>
</g>
<g>
</g>
<g>
</g>
<g>
</g>
<g>
</g>
<g>
</g>
<g>
</g>
<g>
</g>
<g>
</g>
<g>
</g>
<g>
</g>
<g>
</g>
<g>
</g>
<g>
</g>
<g>
</g>
</svg>
