<?xml version="1.0" encoding="iso-8859-1"?>
<!-- Generator: Adobe Illustrator 19.0.0, SVG Export Plug-In . SVG Version: 6.00 Build 0)  -->
<svg version="1.1" id="Layer_1" xmlns="http://www.w3.org/2000/svg" xmlns:xlink="http://www.w3.org/1999/xlink" x="0px" y="0px"
	 viewBox="0 0 488.234 488.234" style="enable-background:new 0 0 488.234 488.234;" xml:space="preserve">
<g>
	<g>
		<path d="M486.42,426.667L486.42,426.667l-4-5.6c-0.1-0.1-0.2-0.3-0.3-0.4c-16.5-20.9-23.9-48.5-20.3-75.7c0-0.1,0-0.2,0-0.2
			l0.8-7.2c0.3-3.1-0.8-6.2-3.1-8.4c-2.3-2.2-5.4-3.1-8.5-2.6l-4.6,0.8c-21.8,2.6-42.9-9.6-51.4-29.6l-1.5-4.4
			c-1.7-5.1-7-7.9-12.2-6.5l-47,13.2c-8.4-16-25.3-27.2-44.2-27.2c-0.7,0-1.5,0-2.2,0.1c4.2-7.4,6.6-16,6.6-25.3
			c0-9.3-2.6-18.1-7-25.6l34.4-34.5c3.6-3.6,3.9-9.3,0.7-13.3l-3.1-3.8c-13.1-17.9-13.1-41.9,0-59.8l3.1-3.8c2-2.5,2.7-5.8,1.8-8.9
			c-0.9-3.1-3.1-5.6-6.1-6.7l-6.3-2.4c-25.3-10.2-45.6-30.5-55.7-55.9l-2.4-6.3c-1.5-3.9-5.2-6.5-9.4-6.5c-4.2,0-7.9,2.6-9.4,6.5
			l-2.4,6.3c-10.1,25.2-30.1,45.6-54.9,55.9l-6.2,2.3c-3,1.1-5.3,3.6-6.1,6.7c-0.9,3.1-0.2,6.4,1.8,8.9l3,3.7c12.5,18,12.5,42,0,60
			l-3,3.7c-3.2,4-2.9,9.7,0.7,13.3l34.1,34.2c-4.7,7.6-7.5,16.5-7.5,25.9c0,9.2,2.5,17.8,6.8,25.2c-0.5,0-1.1,0-1.6,0
			c-19.4,0-36.2,11.1-44.4,27.4l-47.7-13.4c-5.1-1.4-10.5,1.4-12.2,6.5l-1.5,4.4c-8.5,20-29.6,32.2-51.4,29.6l-4.6-0.8
			c-3.1-0.5-6.2,0.4-8.5,2.6c-2.3,2.2-3.4,5.3-3.1,8.4l0.8,7.2c0,0.1,0,0.2,0,0.2c3.7,27.1-3.7,54.6-20.1,75.5l-4.7,5.5
			c-2.7,3.1-3.2,7.6-1.2,11.2c1.9,3.6,5.9,5.7,9.9,5.3l7.2-0.8c0.2,0,0.3,0,0.5-0.1c26.1-4.3,53.5,3.2,75.1,20.4
			c0.1,0.1,0.3,0.2,0.4,0.3l5.6,4c1.7,1.2,3.8,1.9,5.8,1.9c1,0,2.1-0.2,3.1-0.5c3-1,5.4-3.3,6.4-6.4l1.4-4.2
			c9.7-20.4,30.4-32.3,51.6-29.8l5.5,0.8c5,0.7,9.8-2.4,11.1-7.3l12.6-47.8c0.8,0,1.6,0.1,2.4,0.1c20.1,0,37.1-11.4,45-28.2
			c7.9,16.8,24.9,28.2,45,28.2c0.6,0,1.1,0,1.6,0l12.6,47.8c1.3,4.9,6.1,8.1,11.1,7.3l5.5-0.8c21.2-2.5,42.2,9.8,50.9,30
			c0.1,0.2,0.1,0.3,0.2,0.5l2.4,4.8c1.3,2.6,3.7,4.5,6.5,5.2c0.8,0.2,1.6,0.3,2.4,0.3c2.1,0,4.1-0.6,5.8-1.9l5.6-4
			c0.1-0.1,0.3-0.2,0.4-0.3c21.6-17.2,49-24.6,75.1-20.4c0.1,0,0.2,0,0.4,0.1l6.4,0.8c3.9,0.5,7.8-1.4,9.8-4.8
			C488.92,434.167,488.72,429.867,486.42,426.667z M188.52,179.567c14.4-22.6,15.1-51.4,2.2-74.5v0c22.7-10.7,41.7-28.5,54-50.4
			c12.4,22,31.6,39.8,54.6,50.4c-13.5,23.2-12.8,52,2.3,74.6l-27.6,27.7c-8.2-6-18.4-9.6-29.3-9.6c-10.6,0-20.5,3.5-28.7,9.4
			L188.52,179.567z M167.92,407.067c-26.6-2-52.1,11.9-66,35.6c-20.8-14.9-45.5-22.7-70.2-22.3c12.8-21.6,18.6-47.1,16.3-72.7
			c0.2,0,0.4,0,0.6,0c26.5,0,51.1-15.2,62.7-39.1l39.1,10.9c-0.1,1.1-0.1,2.2-0.1,3.4c0,20.1,11.3,37.1,28,45.1L167.92,407.067z
			 M200.12,352.867c-16.7,0-29.9-13.2-29.9-30c0-16.5,13.4-30,29.9-30s29.9,13.5,29.9,30
			C229.92,339.667,216.82,352.867,200.12,352.867z M244.72,277.667c-16.5,0-29.9-13.5-29.9-30c0-16,14-30,29.9-30
			c16.5,0,29.9,13.5,29.9,30C274.62,264.467,261.52,277.667,244.72,277.667z M290.22,352.867c-16.8,0-29.9-13.2-29.9-30
			c0-16.5,13.4-30,29.9-30c15.9,0,29.9,14,29.9,30C320.12,339.367,306.72,352.867,290.22,352.867z M387.12,442.967
			c-13.2-23.6-39-37.9-65.6-35.9l-10.3-38.9c17-8,28.8-25.3,28.8-45.3c0-1.2-0.1-2.4-0.1-3.6l38.3-10.7
			c11.7,24.1,36.6,39.4,63.3,39.1c-2.3,25.5,3.5,51.1,16.3,72.7C432.92,419.967,408.02,427.867,387.12,442.967z"/>
	</g>
</g>
<g>
</g>
<g>
</g>
<g>
</g>
<g>
</g>
<g>
</g>
<g>
</g>
<g>
</g>
<g>
</g>
<g>
</g>
<g>
</g>
<g>
</g>
<g>
</g>
<g>
</g>
<g>
</g>
<g>
</g>
</svg>
