<?xml version="1.0" encoding="iso-8859-1"?>
<!-- Generator: Adobe Illustrator 16.0.0, SVG Export Plug-In . SVG Version: 6.00 Build 0)  -->
<!DOCTYPE svg PUBLIC "-//W3C//DTD SVG 1.1//EN" "http://www.w3.org/Graphics/SVG/1.1/DTD/svg11.dtd">
<svg version="1.1" id="Capa_1" xmlns="http://www.w3.org/2000/svg" xmlns:xlink="http://www.w3.org/1999/xlink" x="0px" y="0px"
	 width="98.764px" height="98.763px" viewBox="0 0 98.764 98.763" style="enable-background:new 0 0 98.764 98.763;"
	 xml:space="preserve">
<g>
	<g>
		<path d="M60.363,87.19c-6.283-0.103-9.508-3.155-11.145-8.419c-1.377-4.435-2.039-9.103-3.059-13.654
			c-0.855-3.836,0.187-6.126,4.189-7.771c6.733-2.755,12.01-7.491,16.021-14.392c-6.659,4.334-20.808,14.995-21.032,12.195
			c0-9.573,5.414-20.755,8.329-30.084C38.227,46.223,34.42,60.312,45.595,84.986c-2.555-0.63-3.735,0.493-4.387-0.071
			c-6.104-5.394-12.359,1.077-18.636,5.54c-0.789,0.555-0.539,4.318-0.251,4.391c6.16,1.434,12.346,3.066,18.622,3.583
			c6.549,0.537,13.244,0.421,19.78-0.298c5.435-0.599,10.722-2.495,16.878-4.004C72.461,86.82,66.021,87.279,60.363,87.19z"/>
		<path d="M36.891,25.502c0.873,0.017-2.057-7.399-1.285-7.801c0.927-0.488,5.431,5.996,5.932,5.056
			c1.3-2.382,1.188-5.958-0.536-9.266c-2.397-4.591-12.196-8.813-12.196-8.813s-2.127,10.448,0.267,15.044
			C30.912,23.252,34.045,25.435,36.891,25.502z"/>
		<path d="M58.991,13.605c0.969,0.392-1.064,8.021-0.021,7.801c2.662-0.548,5.311-2.955,6.714-6.406c1.951-4.795-1.17-15-1.17-15
			s-9.343,5.138-11.3,9.938c-1.498,3.684-1.13,7.486,0.656,9.697C54.426,20.312,58.184,13.278,58.991,13.605z"/>
		<path d="M78.429,28.322c0.527,0.905-5.735,5.708-4.773,6.168c2.439,1.188,6.009,0.903,9.232-0.974
			c4.466-2.608,8.23-12.595,8.23-12.595s-10.54-1.638-15.017,0.97c-3.432,2.005-5.465,5.239-5.393,8.084
			C70.726,30.853,77.991,27.572,78.429,28.322z"/>
		<path d="M80.071,54.593c-3.309-2.203-7.107-2.61-9.633-1.304c-0.777,0.404,5.355,5.496,4.876,6.219
			c-0.574,0.872-7.645-2.652-7.635-1.585c0,2.71,1.824,5.797,4.925,7.868c4.305,2.871,14.928,1.864,14.928,1.864
			S84.384,57.471,80.071,54.593z"/>
		<path d="M18.964,41.05c3.826,1.071,7.561,0.288,9.563-1.738c0.616-0.628-6.794-3.578-6.557-4.409
			c0.281-1.008,8.085,0.155,7.748-0.854c-0.842-2.579-3.524-4.949-7.113-5.958C17.617,26.693,7.83,30.933,7.83,30.933
			S13.973,39.641,18.964,41.05z"/>
		<path d="M29.899,60.127c0.264-0.835-7.678-0.12-7.842-0.965c-0.207-1.027,7.282-3.519,6.524-4.268
			c-1.92-1.92-5.381-2.82-9.037-2.102c-5.078,1.003-11.9,9.209-11.9,9.209S17.064,66.999,22.151,66
			C26.049,65.226,29.032,62.837,29.899,60.127z"/>
	</g>
</g>
<g>
</g>
<g>
</g>
<g>
</g>
<g>
</g>
<g>
</g>
<g>
</g>
<g>
</g>
<g>
</g>
<g>
</g>
<g>
</g>
<g>
</g>
<g>
</g>
<g>
</g>
<g>
</g>
<g>
</g>
</svg>
