<?xml version="1.0" encoding="iso-8859-1"?>
<!-- Generator: Adobe Illustrator 16.0.0, SVG Export Plug-In . SVG Version: 6.00 Build 0)  -->
<!DOCTYPE svg PUBLIC "-//W3C//DTD SVG 1.1//EN" "http://www.w3.org/Graphics/SVG/1.1/DTD/svg11.dtd">
<svg version="1.1" id="Capa_1" xmlns="http://www.w3.org/2000/svg" xmlns:xlink="http://www.w3.org/1999/xlink" x="0px" y="0px"
	 width="125.463px" height="125.463px" viewBox="0 0 125.463 125.463" style="enable-background:new 0 0 125.463 125.463;"
	 xml:space="preserve">
<g>
	<path d="M59.896,88.798c0.294-3.066,0.592-5.564,0.886-6.912c0.76-3.528,1.423-6.701,1.844-9.445
		c5.485-0.339,9.846-4.856,9.846-10.417c0-0.683-0.059-1.408-0.186-2.163c0.336,0.414,0.668,0.849,1.01,1.189
		c4.097,4.088,10.742,4.088,14.835,0c3.967-3.961,4.059-10.272,0.366-14.396c5.678-0.13,10.249-4.764,10.249-10.469
		c0-5.788-4.712-10.489-10.492-10.489c-0.472,0-0.954,0.053-1.444,0.099c0.268-0.228,0.582-0.458,0.812-0.691
		c4.11-4.093,4.11-10.737,0-14.844c-4.093-4.093-10.742-4.093-14.835,0c-0.314,0.312-0.609,0.722-0.91,1.11
		c0.021-0.291,0.041-0.602,0.041-0.883C71.917,4.693,67.222,0,61.428,0c-5.604,0-10.125,4.399-10.436,9.91
		c-4.115-3.809-10.523-3.749-14.529,0.26c-4.09,4.096-4.09,10.741,0,14.84c0.462,0.452,1.016,0.896,1.579,1.324
		c-0.441-0.049-0.886-0.084-1.314-0.084c-5.795,0-10.487,4.695-10.487,10.496c0,5.758,4.649,10.436,10.4,10.48
		c-3.973,4.108-3.953,10.649,0.109,14.708c4.064,4.067,10.634,4.085,14.739,0.074c0,0.01,0,0.017,0,0.017
		c0,4.843,3.318,8.895,7.786,10.096c-0.402,2.598-1.044,5.653-1.776,9.072c-0.933,4.353-1.962,9.175-2.625,13.952
		c-0.021-0.072-0.021-0.137-0.046-0.223c-3.889-13.641-20.856-18.713-28.707-10.862c6.528,10.753,13.6,18.258,28.051,18.258
		c-0.063,1.488-0.048,21.001,0.046,23.144h3.368c0.214-5.51,0.789-16.717,1.472-26.539c0-0.075,0-0.146,0-0.222
		c0.039-0.048,0.074-0.082,0.116-0.13c6.08-6.779,13.68-13.449,22.434-15.77c-5.79,2.142-12.614,6.434-20.742,17.145
		c-0.512,0.678-0.963,1.287-1.36,1.824c19.966,0,30.651-10.119,39.835-25.711C89.253,65.969,66.742,70.935,59.896,88.798z
		 M54.191,102.008c-3.869-5.493-9.125-10.913-15.475-13.183c3.97,1.048,8.949,3.505,15.632,10.886
		C54.289,100.481,54.226,101.248,54.191,102.008z M53.032,36.179c0-5.046,4.1-9.156,9.153-9.156c5.044,0,9.15,4.11,9.15,9.156
		c0,5.043-4.106,9.156-9.15,9.156C57.131,45.335,53.032,41.222,53.032,36.179z"/>
</g>
<g>
</g>
<g>
</g>
<g>
</g>
<g>
</g>
<g>
</g>
<g>
</g>
<g>
</g>
<g>
</g>
<g>
</g>
<g>
</g>
<g>
</g>
<g>
</g>
<g>
</g>
<g>
</g>
<g>
</g>
</svg>
