<?xml version='1.0' encoding='iso-8859-1'?>
<!DOCTYPE svg PUBLIC '-//W3C//DTD SVG 1.1//EN' 'http://www.w3.org/Graphics/SVG/1.1/DTD/svg11.dtd'>
<svg version="1.1" xmlns="http://www.w3.org/2000/svg" viewBox="0 0 470 470" xmlns:xlink="http://www.w3.org/1999/xlink" enable-background="new 0 0 470 470">
  <g>
    <path d="m400.582,254.034c-12.207-2.138-30.654-5.368-51.72-5.368-27.152,0-50.664,5.547-69.882,16.485-13.422,7.64-24.758,17.91-33.98,30.661v-90.916c11.295,3.86 22.445,5.817 33.296,5.817 0.004,0-0.002,0 0.001,0 56.455,0 89.518-50.861 103.635-72.579 0.991-1.525 1.878-2.891 2.663-4.063l8.673-12.955-15.391-2.481c-1.393-0.224-2.996-0.505-4.786-0.818-10.218-1.79-25.657-4.494-43.336-4.494-36.956,0-65.636,12.319-84.755,36.008v-77.084c7.094,2.071 14.11,3.123 20.976,3.123 41.934,0 66.181-37.296 76.531-53.221 0.701-1.08 1.329-2.046 1.885-2.876l8.674-12.955-15.392-2.481c-0.985-0.158-2.12-0.357-3.387-0.579-6.958-1.219-18.601-3.258-31.495-3.258-30.79,0-53.846,11.548-67.792,33.667-13.945-22.119-37.002-33.667-67.792-33.667-12.896,0-24.537,2.039-31.492,3.257-1.267,0.223-2.403,0.422-3.389,0.58l-15.392,2.481 8.673,12.954c0.554,0.828 1.18,1.792 1.88,2.868 10.352,15.927 34.596,53.224 76.534,53.229 0.004,0 0.007,0 0.011,0 6.861,0 13.875-1.052 20.967-3.122v77.082c-19.119-23.688-47.799-36.008-84.754-36.008-17.682,0-33.118,2.704-43.334,4.493-1.791,0.313-3.396,0.596-4.788,0.819l-15.392,2.481 8.673,12.955c0.783,1.17 1.669,2.533 2.658,4.055 14.118,21.719 47.18,72.58 103.64,72.588 0.004,0 0.008,0 0.013,0 10.845,0 21.991-1.958 33.284-5.817v90.918c-9.223-12.75-20.56-23.02-33.981-30.66-19.219-10.941-42.73-16.488-69.881-16.488-21.069,0-39.514,3.23-51.718,5.368-2.164,0.379-4.102,0.719-5.784,0.989l-15.393,2.48 8.674,12.956c0.946,1.413 2.016,3.059 3.209,4.896 16.787,25.824 56.098,86.298 122.847,86.308 0.006,0 0.011,0 0.016,0 13.66,0 27.738-2.622 42.012-7.811v116.149h20v-116.149c14.275,5.191 28.357,7.813 42.025,7.813 0.004,0-0.004,0 0.001,0 66.743,0 106.058-60.476 122.841-86.298 1.197-1.841 2.269-3.49 3.216-4.905l8.674-12.956-15.393-2.48c-1.682-0.272-3.62-0.612-5.783-0.991zm-70.827-120.712c11.006,0 21.28,1.203 29.727,2.497-14.497,21.265-41.529,54.895-81.186,54.895-9.866,0-20.183-2.071-30.768-6.17 13.7-34.443 40.686-51.222 82.227-51.222zm-26.963-113.322c5.81,0 11.348,0.483 16.273,1.111-10.552,14.653-28.337,34.259-53.09,34.259-5.85,0-11.951-1.079-18.223-3.216 9.679-21.615 27.768-32.154 55.04-32.154zm-98.76,35.37c-0.002,0-0.005,0-0.007,0-24.751-0.004-42.536-19.604-53.09-34.259 4.924-0.628 10.464-1.111 16.273-1.111 27.271,0 45.362,10.539 55.039,32.154-6.27,2.138-12.369,3.216-18.215,3.216zm-12.316,135.344c-0.003,0-0.007,0-0.01,0-39.651-0.006-66.687-33.629-81.187-54.895 8.444-1.295 18.719-2.497 29.727-2.497 41.54,0 68.526,16.778 82.227,51.222-10.584,4.099-20.898,6.17-30.757,6.17zm-8.728,150.949c-0.003,0-0.009,0-0.013,0-50.337-0.007-83.863-43.88-101.002-69.478 10.757-1.74 24.401-3.518 39.164-3.518 23.638,0 43.82,4.666 59.987,13.869 18.656,10.62 32.563,27.7 41.419,50.838-13.605,5.505-26.875,8.29-39.555,8.289zm104.037,0c-12.687,0-25.964-2.785-39.569-8.29 8.857-23.143 22.762-40.221 41.419-50.84 16.165-9.202 36.348-13.867 59.987-13.867 14.76,0 28.406,1.779 39.164,3.518-17.133,25.597-50.658,69.479-101.001,69.479z"/>
  </g>
</svg>
