<?xml version="1.0" encoding="iso-8859-1"?>
<!-- Generator: Adobe Illustrator 18.0.0, SVG Export Plug-In . SVG Version: 6.00 Build 0)  -->
<!DOCTYPE svg PUBLIC "-//W3C//DTD SVG 1.1//EN" "http://www.w3.org/Graphics/SVG/1.1/DTD/svg11.dtd">
<svg version="1.1" id="Capa_1" xmlns="http://www.w3.org/2000/svg" xmlns:xlink="http://www.w3.org/1999/xlink" x="0px" y="0px"
	 viewBox="0 0 489.652 489.652" style="enable-background:new 0 0 489.652 489.652;" xml:space="preserve">
<g id="XMLID_207_">
	<path id="XMLID_229_" d="M149.432,320.792c0.266,0.419-30.83-0.766-45.728,25.136c-14.48,26.469-8.708,49.601,3.507,57.96
		c12.672,8.901,24.871,0.218,35.352-25.832C152.849,352.501,149.084,321.187,149.432,320.792z"/>
	<path id="XMLID_228_" d="M124.899,306.023c15.075-18.729,19.051-46.921,19.397-47.156c0.121,0.338-25.776-7.336-44.237,10.98
		c-18.277,18.753-19.237,38.78-11.255,48.624C97.003,328.765,109.532,325.082,124.899,306.023z"/>
	<path id="XMLID_227_" d="M114.37,200.875c-19.027,11.9-24.195,27.919-19.881,37.828c4.377,10.271,15.527,10.376,32.53-2.161
		c16.721-12.367,26.096-36.004,26.403-36.119C153.453,200.682,133.476,189.331,114.37,200.875z"/>
	<path id="XMLID_226_" d="M141.676,144.634c-19.237,6.998-27.009,20.082-25.268,29.749c1.734,9.973,11.497,12.473,29.161,4.612
		c17.376-7.74,30.629-27.524,30.919-27.558C176.464,151.641,160.912,137.901,141.676,144.634z"/>
	<path id="XMLID_225_" d="M174.682,100.058c-17.471,3.023-26.251,12.666-26.589,21.123c-0.362,8.675,7.281,12.593,23.647,8.764
		c16.132-3.789,31.105-18.995,31.337-18.986C203.037,111.119,192.128,97.26,174.682,100.058z"/>
	<path id="XMLID_224_" d="M0.103,329.861c-0.895-0.451,3.597,55.758,31.274,81.169c26.75,24.84,41.745,19.043,44.979,3.717
		c3.548-15.963-3.991-35.973-25.662-61.369C29.475,327.484,0.338,329.442,0.103,329.861z"/>
	<path id="XMLID_223_" d="M60.094,319.623c7.086-11.883,5.861-30.072-6.537-55.798c-11.989-26.073-37.159-30.774-37.41-30.5
		c-0.532-0.459-9.159,45.858,7.369,72.48C39.52,331.909,53.347,331.095,60.094,319.623z"/>
	<path id="XMLID_222_" d="M70.399,233.051c8.504-7.982,11.561-23.195,6.522-46.88c-4.693-23.849-24.775-32.709-25.001-32.555
		c-0.297-0.389-16.333,35.199-8.586,60.094C50.8,238.154,62.224,240.799,70.399,233.051z"/>
	<path id="XMLID_221_" d="M96.212,164.402c9.103-5.28,14.931-18.164,15.068-40.117c0.492-22.026-15.665-33.651-15.874-33.571
		c-0.185-0.346-21.018,27.823-19.14,51.155C77.961,164.813,87.409,169.53,96.212,164.402z"/>
	<path id="XMLID_220_" d="M132.839,109.169c8.53-2.822,15.753-12.714,19.535-31.153c4.007-18.454-7.803-30.668-7.982-30.628
		c-0.096-0.266-21.848,19.865-24.283,39.529C117.609,106.274,124.544,111.933,132.839,109.169z"/>
	<path id="XMLID_219_" d="M193.051,47.627c-14.674,10.625-19.751,19.914-18.98,25.871c-102.52,89.71-138.067,239.998-77.882,370.088
		c3.322,7.184,9.965,11.102,14.414,8.829c4.467-2.259,5.241-9.466,2.137-16.182c-0.064-0.128-0.145-0.315-0.21-0.444
		C52.746,314.701,81.693,169.503,179.456,79.425c5.635,1.768,14.783-1.367,28.324-11.159c16.752-12.044,26.572-31.313,26.726-31.426
		C234.724,36.76,211.892,34.18,193.051,47.627z"/>
	<path id="XMLID_218_" d="M385.949,345.928c-14.898-25.902-45.994-24.717-45.728-25.136c0.347,0.395-3.417,31.708,6.869,57.265
		c10.481,26.049,22.68,34.733,35.353,25.832C394.657,395.529,400.429,372.398,385.949,345.928z"/>
	<path id="XMLID_217_" d="M345.356,258.866c0.347,0.235,4.322,28.427,19.397,47.156c15.367,19.059,27.896,22.743,36.095,12.448
		c7.981-9.844,7.022-29.871-11.255-48.624C371.132,251.53,345.235,259.205,345.356,258.866z"/>
	<path id="XMLID_216_" d="M362.633,236.542c17.003,12.537,28.153,12.433,32.53,2.161c4.314-9.908-0.854-25.928-19.881-37.828
		c-19.107-11.544-39.084-0.193-39.053-0.452C336.537,200.537,345.912,224.174,362.633,236.542z"/>
	<path id="XMLID_215_" d="M373.243,174.383c1.742-9.667-6.03-22.751-25.267-29.749c-19.236-6.732-34.788,7.007-34.812,6.803
		c0.29,0.033,13.543,19.817,30.919,27.558C361.746,186.856,371.509,184.356,373.243,174.383z"/>
	<path id="XMLID_214_" d="M341.559,121.181c-0.338-8.457-9.119-18.099-26.589-21.123c-17.446-2.798-28.355,11.061-28.395,10.9
		c0.232-0.008,15.205,15.197,31.337,18.986C334.278,133.774,341.921,129.856,341.559,121.181z"/>
	<path id="XMLID_213_" d="M489.549,329.861c-0.235-0.419-29.372-2.377-50.591,23.517c-21.671,25.396-29.209,45.406-25.662,61.369
		c3.233,15.326,18.229,21.123,44.979-3.717C485.953,385.62,490.444,329.411,489.549,329.861z"/>
	<path id="XMLID_212_" d="M436.095,263.825c-12.398,25.726-13.623,43.915-6.537,55.798c6.747,11.473,20.574,12.286,36.578-13.818
		c16.528-26.621,7.9-72.939,7.369-72.48C473.254,233.051,448.084,237.752,436.095,263.825z"/>
	<path id="XMLID_211_" d="M419.253,233.051c8.175,7.749,19.599,5.104,27.065-19.342c7.747-24.895-8.289-60.482-8.586-60.094
		c-0.226-0.154-20.309,8.706-25.001,32.555C407.692,209.856,410.749,225.069,419.253,233.051z"/>
	<path id="XMLID_210_" d="M393.44,164.402c8.804,5.128,18.251,0.411,19.945-22.534c1.878-23.332-18.955-51.501-19.14-51.155
		c-0.209-0.08-16.366,11.545-15.874,33.571C378.509,146.238,384.337,159.122,393.44,164.402z"/>
	<path id="XMLID_209_" d="M356.813,109.169c8.295,2.765,15.23-2.895,12.73-22.252c-2.436-19.664-24.188-39.794-24.283-39.529
		c-0.179-0.04-11.989,12.174-7.982,30.628C341.059,96.454,348.283,106.346,356.813,109.169z"/>
	<path id="XMLID_208_" d="M315.581,73.498c0.771-5.957-4.306-15.246-18.979-25.871C277.76,34.18,254.928,36.76,255.146,36.841
		c0.154,0.113,9.973,19.381,26.726,31.426c13.541,9.791,22.69,12.926,28.324,11.159c97.764,90.078,126.71,235.276,66.926,356.364
		c-0.065,0.129-0.146,0.315-0.21,0.444c-3.104,6.716-2.33,13.923,2.137,16.182c4.45,2.273,11.092-1.645,14.414-8.829
		C453.648,313.497,418.101,163.208,315.581,73.498z"/>
</g>
<g>
</g>
<g>
</g>
<g>
</g>
<g>
</g>
<g>
</g>
<g>
</g>
<g>
</g>
<g>
</g>
<g>
</g>
<g>
</g>
<g>
</g>
<g>
</g>
<g>
</g>
<g>
</g>
<g>
</g>
</svg>
