<?xml version="1.0" encoding="iso-8859-1"?>
<!-- Generator: Adobe Illustrator 19.0.0, SVG Export Plug-In . SVG Version: 6.00 Build 0)  -->
<svg version="1.1" id="Layer_1" xmlns="http://www.w3.org/2000/svg" xmlns:xlink="http://www.w3.org/1999/xlink" x="0px" y="0px"
	 viewBox="0 0 512.169 512.169" style="enable-background:new 0 0 512.169 512.169;" xml:space="preserve">
<g transform="translate(1 1)">
	<g>
		<path d="M413.951,493.514H272.71v-41.227c0.313-0.362,0.612-0.739,0.883-1.145c13.398-26.797,31.557-47.231,46.953-63.578
			c50.748-0.408,81.526-9.307,101.351-29.994c19.421-19.421,28.248-49.434,27.366-93.572c0-5.297-4.414-8.828-8.828-8.828
			c-81.182,0-131.281,19.866-132.388,120.176c-11.188,11.844-23.7,25.661-35.337,42.42V299.307
			c0-11.001,12.172-32.547,30.287-52.975c81.259-0.391,119.781-14.045,119.781-123.577c0-5.297-3.531-8.828-8.828-8.828
			c-83.036,0-122.793,12.133-123.568,120.346c-4.442,5.037-11.129,13.014-17.505,22.239c-0.058-0.323-0.104-0.646-0.169-0.97
			v-97.478c0-10.635,0.696-19.882,2.18-28.345c28.399-5.12,54.57-21.974,69.324-44.924c14.124-22.069,16.772-50.317,7.945-79.448
			c-1.766-4.414-5.297-7.062-9.71-6.179c-45.903,7.062-78.566,25.6-91.807,54.731c-10.051,21.778-7.377,46.734,7.25,70.345
			c-1.927,10.152-2.836,21.194-2.836,33.821v61.108c-7.087-9.923-14.279-17.805-17.684-21.367
			c-0.482-39.697-7.623-63.282-23.806-79.465c-15.89-15.89-39.724-22.069-73.269-22.069c-5.297,0-8.828,4.414-8.828,8.828
			c0,62.58,16.261,104.621,93.44,105.901c10.141,10.88,30.146,36.009,30.146,52.996v113.482
			c-8.312-10.788-16.323-18.247-22.952-24.323c-1.213-1.213-2.422-2.422-3.551-3.551c-0.83-123.019-58.965-147.401-158.877-147.401
			c-5.297,0-8.828,3.531-8.828,8.828c0,98.333,52.331,148.625,154.449,150.035c1.777,1.777,3.553,3.553,5.33,5.33
			c9.48,8.618,22.324,20.606,34.428,41.704v85.414H113.813c-5.297,0-8.828,3.531-8.828,8.828c0,5.297,3.531,8.828,8.828,8.828
			h300.138c5.297,0,8.828-3.531,8.828-8.828C422.779,497.045,419.248,493.514,413.951,493.514z M431.606,272.824
			c-0.883,34.428-7.945,57.379-22.069,72.386c-14.813,15.636-38.073,22.831-75.488,24.449c9.824-14.472,22.694-28.528,40.177-35.925
			c4.414-1.766,6.179-7.062,4.414-11.476c-1.766-4.414-7.062-6.179-11.476-4.414c-16.872,7.381-29.647,18.542-39.836,30.848
			C335.273,287.404,369.378,273.622,431.606,272.824z M266.53,60.962c9.71-22.069,34.428-37.076,70.621-43.255
			c5.297,22.069,2.648,41.49-7.945,58.262c-12.17,19.016-32.202,30.161-49.372,35.141c3.358-9.19,7.986-17.904,14.061-27.196
			c2.648-4.414,1.766-9.71-2.648-12.359c-4.414-2.648-9.71-1.766-12.359,2.648c-5.529,8.438-9.996,16.59-13.509,24.991
			C260.925,85.954,261.3,72.732,266.53,60.962z M149.123,113.928c23.834,0.883,40.607,6.179,52.083,16.772
			c9.424,10.149,15.273,25.066,17.553,47.184l-18.436-19.819c-3.531-3.531-8.828-4.414-12.359-0.883
			c-3.531,3.531-4.414,8.828-0.883,12.359l20.768,22.845C161.352,186.654,149.941,160.503,149.123,113.928z M78.503,219.859
			c79.518,1.64,123.248,20.041,131.206,103.249c-18.504-24.172-37.522-40.645-57.054-49.401c-4.414-1.766-9.71,0-11.476,4.414
			c-1.766,4.414,0,9.71,4.414,11.476c19.858,8.401,39.055,26.062,58.162,53.538C121.21,338.557,81.078,298.82,78.503,219.859z
			 M405.042,131.63c-1.527,80.44-24.716,94.791-85.674,96.776c10.592-11.626,25.058-26.372,38.087-36.795
			c4.414-2.648,4.414-8.828,1.766-12.359c-2.648-4.414-8.828-4.414-12.359-1.766c-13.308,10.283-27.443,24.296-38.148,35.791
			C313.194,142.07,340.063,132.331,405.042,131.63z"/>
	</g>
</g>
<g>
</g>
<g>
</g>
<g>
</g>
<g>
</g>
<g>
</g>
<g>
</g>
<g>
</g>
<g>
</g>
<g>
</g>
<g>
</g>
<g>
</g>
<g>
</g>
<g>
</g>
<g>
</g>
<g>
</g>
</svg>
