<?xml version="1.0" encoding="iso-8859-1"?>
<!-- Generator: Adobe Illustrator 19.0.0, SVG Export Plug-In . SVG Version: 6.00 Build 0)  -->
<svg version="1.1" id="Layer_1" xmlns="http://www.w3.org/2000/svg" xmlns:xlink="http://www.w3.org/1999/xlink" x="0px" y="0px"
	 viewBox="0 0 512 512" style="enable-background:new 0 0 512 512;" xml:space="preserve">
<g>
	<g>
		<g>
			<path d="M256,0c-10.345,0-18.732,8.387-18.732,18.732v92.994c0,10.345,8.387,18.732,18.732,18.732s18.732-8.387,18.732-18.732
				V18.732C274.732,8.387,266.345,0,256,0z"/>
			<path d="M256,381.542c-10.345,0-18.732,8.387-18.732,18.732v92.994c0,10.345,8.387,18.732,18.732,18.732
				s18.732-8.387,18.732-18.732v-92.994C274.732,389.929,266.345,381.542,256,381.542z"/>
			<path d="M140.42,167.64l-80.535-46.497c-8.959-5.172-20.416-2.103-25.588,6.857c-5.172,8.959-2.103,20.415,6.856,25.589
				l80.535,46.497c8.96,5.172,20.416,2.102,25.588-6.856C152.45,184.27,149.38,172.814,140.42,167.64z"/>
			<path d="M470.846,358.411l-80.535-46.497c-8.96-5.172-20.416-2.103-25.587,6.856c-5.172,8.959-2.103,20.415,6.856,25.588
				l80.535,46.497c8.96,5.172,20.416,2.102,25.588-6.857C482.875,375.041,479.805,363.585,470.846,358.411z"/>
			<path d="M121.689,311.915l-80.535,46.497c-8.959,5.172-12.028,16.629-6.856,25.589c5.175,8.962,16.633,12.027,25.588,6.857
				l80.535-46.497c8.959-5.172,12.028-16.629,6.856-25.588C142.105,309.812,130.647,306.742,121.689,311.915z"/>
			<path d="M390.311,200.085l80.535-46.497c8.959-5.172,12.028-16.629,6.856-25.589c-5.172-8.959-16.629-12.03-25.588-6.857
				l-80.535,46.497c-8.959,5.172-12.028,16.629-6.856,25.589C369.898,202.191,381.355,205.256,390.311,200.085z"/>
		</g>
	</g>
</g>
<g>
</g>
<g>
</g>
<g>
</g>
<g>
</g>
<g>
</g>
<g>
</g>
<g>
</g>
<g>
</g>
<g>
</g>
<g>
</g>
<g>
</g>
<g>
</g>
<g>
</g>
<g>
</g>
<g>
</g>
</svg>
