<?xml version="1.0" encoding="iso-8859-1"?>
<!-- Generator: Adobe Illustrator 16.0.0, SVG Export Plug-In . SVG Version: 6.00 Build 0)  -->
<!DOCTYPE svg PUBLIC "-//W3C//DTD SVG 1.1//EN" "http://www.w3.org/Graphics/SVG/1.1/DTD/svg11.dtd">
<svg version="1.1" id="Capa_1" xmlns="http://www.w3.org/2000/svg" xmlns:xlink="http://www.w3.org/1999/xlink" x="0px" y="0px"
	 width="128px" height="128px" viewBox="0 0 128 128" style="enable-background:new 0 0 128 128;" xml:space="preserve">
<g>
	<g>
		<path d="M116,8H12C5.373,8,0,13.373,0,20v72c0,6.627,5.373,12,12,12h13.604l8.665,15.008c0.018,0.03,0.041,0.055,0.06,0.083
			c0.042,0.065,0.086,0.129,0.137,0.189c0.038,0.046,0.079,0.088,0.12,0.13c0.049,0.049,0.099,0.097,0.152,0.141
			c0.053,0.044,0.108,0.082,0.165,0.119c0.034,0.021,0.062,0.051,0.098,0.07c0.021,0.012,0.043,0.018,0.064,0.027
			c0.061,0.032,0.123,0.06,0.187,0.086c0.06,0.023,0.119,0.049,0.18,0.065c0.061,0.019,0.122,0.029,0.185,0.042
			c0.064,0.014,0.129,0.025,0.195,0.033C35.873,120.001,35.937,120,36,120c0.064,0,0.128,0.001,0.191-0.005
			c0.065-0.007,0.13-0.021,0.195-0.033c0.062-0.013,0.123-0.022,0.184-0.042c0.061-0.018,0.119-0.042,0.18-0.066
			c0.063-0.025,0.126-0.053,0.188-0.084c0.021-0.012,0.043-0.018,0.063-0.028c0.035-0.021,0.063-0.048,0.097-0.069
			c0.058-0.038,0.113-0.077,0.167-0.121c0.053-0.043,0.101-0.089,0.148-0.137c0.043-0.044,0.085-0.088,0.125-0.137
			c0.048-0.058,0.09-0.117,0.131-0.18c0.02-0.031,0.045-0.058,0.063-0.09L46.397,104H116c6.627,0,12-5.373,12-12V20
			C128,13.373,122.627,8,116,8z M124,90c0,5.521-4.479,10-10,10H47.869h-3.782l-2.31,4L36,114.007L30.223,104l-2.31-4h-3.781H14
			c-5.522,0-10-4.479-10-10V22c0-5.522,4.478-10,10-10h100c5.521,0,10,4.478,10,10V90z"/>
		<path d="M64,46c-5.522,0-10,4.478-10,10s4.478,10,10,10c5.521,0,10-4.478,10-10S69.521,46,64,46z M64,62c-3.313,0-6-2.687-6-6
			s2.687-6,6-6c3.312,0,6,2.687,6,6S67.312,62,64,62z"/>
		<path d="M98,46c-5.521,0-10,4.478-10,10s4.479,10,10,10s10-4.478,10-10S103.521,46,98,46z M98,62c-3.312,0-6-2.687-6-6
			s2.688-6,6-6s6,2.687,6,6S101.312,62,98,62z"/>
		<path d="M30,46c-5.522,0-10,4.478-10,10s4.478,10,10,10s10-4.478,10-10S35.522,46,30,46z M30,62c-3.313,0-6-2.687-6-6s2.687-6,6-6
			s6,2.687,6,6S33.313,62,30,62z"/>
	</g>
</g>
<g>
</g>
<g>
</g>
<g>
</g>
<g>
</g>
<g>
</g>
<g>
</g>
<g>
</g>
<g>
</g>
<g>
</g>
<g>
</g>
<g>
</g>
<g>
</g>
<g>
</g>
<g>
</g>
<g>
</g>
</svg>
