<?xml version='1.0' encoding='iso-8859-1'?>
<svg version="1.1" xmlns="http://www.w3.org/2000/svg" viewBox="0 0 20.377 20.377" xmlns:xlink="http://www.w3.org/1999/xlink" enable-background="new 0 0 20.377 20.377">
  <g>
    <path d="m20.137,11.116c0.028-0.308 0.052-0.617 0.052-0.927 0-5.514-4.486-10-10-10s-10,4.486-10,10c0,0.31 0.023,0.619 0.052,0.927-0.198,0.241-0.295,0.559-0.208,0.883l.518,1.932c0.143,0.533 0.691,0.85 1.225,0.707l.966-.259c0.478,0.276 0.746,0.431 1.225,0.707l.966-.259c0.143,0.534 0.691,0.85 1.225,0.707 0.534-0.143 0.85-0.691 0.707-1.225l-1.555-5.795c-0.143-0.533-0.691-0.85-1.225-0.707-0.533,0.143-0.85,0.691-0.707,1.225l-.966,.259c-0.072,0.124-0.135,0.234-0.195,0.338 0.289-4.15 3.749-7.44 7.972-7.44 4.222,0 7.682,3.291 7.972,7.441-0.06-0.104-0.123-0.214-0.195-0.338l-.966-.259c0.143-0.533-0.174-1.082-0.707-1.225-0.534-0.143-1.082,0.174-1.225,0.707l-1.553,5.796c-0.143,0.534 0.174,1.082 0.707,1.225 0.533,0.143 1.082-0.174 1.225-0.707l.966,.259c0.445-0.257 0.715-0.413 1.135-0.655-1.162,2.005-3.112,3.47-5.385,4.017 0.011-0.086 0.026-0.171 0.026-0.259 0-1.105-0.895-2-2-2s-2,0.895-2,2c0,1.105 0.895,2 2,2 0.567,0 1.076-0.238 1.44-0.617 2.978-0.46 5.554-2.319 6.95-4.94l.024,.007c0.533,0.143 1.082-0.174 1.225-0.707l.518-1.932c0.086-0.327-0.011-0.645-0.209-0.886z"/>
  </g>
</svg>
