<?xml version="1.0" encoding="iso-8859-1"?>
<!-- Generator: Adobe Illustrator 19.0.0, SVG Export Plug-In . SVG Version: 6.00 Build 0)  -->
<svg version="1.1" id="Layer_1" xmlns="http://www.w3.org/2000/svg" xmlns:xlink="http://www.w3.org/1999/xlink" x="0px" y="0px"
	 viewBox="0 0 326.431 326.431" style="enable-background:new 0 0 326.431 326.431;" xml:space="preserve">
<g>
	<g>
		<path d="M279.31,99.76l44.484-44.485c2.558-2.558,3.336-6.398,1.975-9.75c-1.36-3.351-4.595-5.563-8.212-5.613l-30.608-0.431
			l-0.431-30.608c-0.051-3.617-2.262-6.852-5.613-8.212s-7.192-0.583-9.75,1.975L226.67,47.12c-1.154,1.153-1.972,2.599-2.368,4.181
			l-0.768,3.071c-22.333-13.728-48.596-21.657-76.678-21.657C65.88,32.716,0,98.596,0,179.573S65.88,326.43,146.857,326.43
			s146.857-65.88,146.857-146.857c0-28.082-7.929-54.345-21.657-76.678l3.071-0.768C276.711,101.732,278.157,100.914,279.31,99.76z
			 M275.715,179.573c0,71.052-57.805,128.857-128.857,128.857S18,250.626,18,179.573S75.805,50.716,146.857,50.716
			c26.677,0,51.486,8.15,72.07,22.089l-7.324,29.295l-5.972,5.972c-15.999-13.175-36.479-21.097-58.775-21.097
			c-51.059,0-92.599,41.54-92.599,92.599c0,51.059,41.54,92.599,92.599,92.599c51.059,0,92.599-41.54,92.599-92.599
			c0-22.296-7.922-42.775-21.097-58.775l5.972-5.972l29.295-7.324C267.565,128.087,275.715,152.896,275.715,179.573z
			 M137.119,189.312c1.757,1.757,4.061,2.636,6.364,2.636c2.303,0,4.606-0.879,6.364-2.636l20.903-20.903
			c1.592,3.393,2.486,7.175,2.486,11.164c0,14.545-11.833,26.379-26.379,26.379c-14.546,0-26.379-11.833-26.379-26.379
			c0-14.546,11.833-26.379,26.379-26.379c3.989,0,7.772,0.895,11.165,2.487l-20.903,20.903
			C133.604,180.099,133.604,185.797,137.119,189.312z M171.206,142.497c-6.996-4.61-15.362-7.303-24.349-7.303
			c-24.471,0-44.379,19.908-44.379,44.379s19.908,44.379,44.379,44.379s44.379-19.908,44.379-44.379
			c0-8.987-2.693-17.353-7.303-24.349l21.615-21.615c9.951,12.679,15.908,28.634,15.908,45.964
			c0,41.134-33.465,74.599-74.599,74.599c-41.134,0-74.599-33.465-74.599-74.599c0-41.134,33.465-74.599,74.599-74.599
			c17.33,0,33.285,5.957,45.964,15.908L171.206,142.497z M268.345,85.27L232.1,94.331l9.061-36.245l27.659-27.659l0.254,18.057
			c0.068,4.871,4.001,8.804,8.872,8.872l18.057,0.254L268.345,85.27z"/>
	</g>
</g>
<g>
</g>
<g>
</g>
<g>
</g>
<g>
</g>
<g>
</g>
<g>
</g>
<g>
</g>
<g>
</g>
<g>
</g>
<g>
</g>
<g>
</g>
<g>
</g>
<g>
</g>
<g>
</g>
<g>
</g>
</svg>
