<?xml version="1.0" encoding="iso-8859-1"?>
<!-- Generator: Adobe Illustrator 16.0.0, SVG Export Plug-In . SVG Version: 6.00 Build 0)  -->
<!DOCTYPE svg PUBLIC "-//W3C//DTD SVG 1.1//EN" "http://www.w3.org/Graphics/SVG/1.1/DTD/svg11.dtd">
<svg version="1.1" id="Capa_1" xmlns="http://www.w3.org/2000/svg" xmlns:xlink="http://www.w3.org/1999/xlink" x="0px" y="0px"
	 width="797.996px" height="797.996px" viewBox="0 0 797.996 797.996" style="enable-background:new 0 0 797.996 797.996;"
	 xml:space="preserve">
<g>
	<path d="M724.705,405.483c-2.223,1.043-4.368,2.186-6.442,3.387c4.771-21.889,6.618-40.311,6.652-50.879
		c0.044-1.473,0.154-6.353,0.021-13.717c13.323-5.919,33.259-17.354,46.377-36.742c21.223-31.361,16.517-71.602,16.517-71.602
		s-39.101,10.6-60.316,41.96c-2.62,3.87-4.837,7.877-6.724,11.923c-2.659-20.062-6.967-42.749-13.906-65.589
		c11.55-8.823,28.629-24.833,36.908-47.14c13.175-35.5-0.942-73.477-0.942-73.477s-35.471,19.574-48.643,55.072
		c-2.572,6.914-4.078,13.92-4.876,20.725c-5.048-10.183-10.774-20.049-17.34-29.322c-0.767-1.09-1.648-2.047-2.599-2.913
		c-4.391-11.711-11.241-24.741-22.015-35.586c-26.693-26.858-67.084-29.986-67.084-29.986s2.874,40.412,29.567,67.271
		c9.687,9.748,21.166,16.337,31.879,20.819c0.249,0.427,0.436,0.877,0.729,1.291c18.942,26.763,30.157,60.041,36.8,91.031
		c-9.604-10.404-23.843-22.523-42.084-28.768c-35.822-12.263-73.429,2.816-73.429,2.816s20.478,34.963,56.3,47.226
		c24.415,8.357,49.637,4.013,63.234,0.4c6.398,40.581,5.488,72.788,5.466,73.395c-0.005,0.202-0.01,0.406-0.01,0.61
		c0,0.414-0.657,10.255-3.106,25.18c-5.94-12.856-15.767-28.779-31.218-40.335c-30.317-22.681-70.735-19.89-70.735-19.89
		s8.738,39.561,39.062,62.244c20.004,14.966,44.341,18.817,58.629,19.726c-5.186,22.784-13.88,50.521-28.222,75.56
		c-2.632-9.956-6.847-20.517-13.564-30.181c-21.613-31.09-60.841-41.207-60.841-41.207s-4.203,40.297,17.41,71.394
		c9.803,14.104,23.213,23.858,34.962,30.339c-14.094,15.183-31.564,27.197-53.248,33.192c1.284-13.984,0.744-32.282-6.555-49.691
		c-14.641-34.925-50.895-53.006-50.895-53.006s-12.521,38.531,2.113,73.455c5.892,14.057,15.279,25.331,24.397,33.85
		c-65.037,5.314-112.786,20.125-147.937,38.379c-35.15-18.254-82.9-33.064-147.938-38.382c9.118-8.519,18.507-19.793,24.398-33.85
		c14.635-34.924,2.113-73.455,2.113-73.455s-36.253,18.081-50.894,53.006c-7.298,17.409-7.839,35.707-6.554,49.691
		c-21.685-5.995-39.155-18.011-53.249-33.192c11.75-6.48,25.16-16.233,34.962-30.339c21.613-31.096,17.41-71.393,17.41-71.393
		s-39.227,10.115-60.84,41.207c-6.719,9.664-10.933,20.224-13.564,30.18c-14.343-25.038-23.037-52.774-28.222-75.561
		c14.288-0.906,38.626-4.758,58.628-19.725c30.323-22.683,39.061-62.244,39.061-62.244s-40.418-2.792-70.736,19.89
		c-15.451,11.557-25.275,27.479-31.217,40.335c-2.448-14.925-3.105-24.766-3.105-25.18c0-0.204-0.006-0.408-0.011-0.61
		c-0.022-0.606-0.932-32.814,5.466-73.395c13.598,3.613,38.819,7.957,63.234-0.4c35.823-12.263,56.3-47.226,56.3-47.226
		s-37.605-15.079-73.428-2.816c-18.243,6.245-32.48,18.363-42.084,28.768c6.641-30.99,17.856-64.268,36.799-91.031
		c0.292-0.413,0.48-0.863,0.729-1.291c10.713-4.482,22.192-11.071,31.879-20.819c26.694-26.856,29.568-67.268,29.568-67.268
		s-40.39,3.128-67.084,29.986c-10.773,10.845-17.625,23.875-22.015,35.586c-0.949,0.866-1.832,1.823-2.599,2.913
		c-6.564,9.273-12.291,19.139-17.338,29.322c-0.799-6.804-2.305-13.811-4.876-20.725c-13.173-35.497-48.644-55.071-48.644-55.071
		s-14.117,37.977-0.943,73.477c8.28,22.308,25.358,38.317,36.91,47.14c-6.94,22.841-11.248,45.527-13.907,65.589
		c-1.887-4.046-4.104-8.054-6.725-11.923c-21.215-31.36-60.315-41.96-60.315-41.96s-4.706,40.241,16.516,71.602
		c13.118,19.388,33.054,30.823,46.376,36.742c-0.133,7.364-0.022,12.244,0.022,13.717c0.033,10.569,1.881,28.991,6.652,50.878
		c-2.074-1.2-4.22-2.342-6.443-3.385C39.023,389.385,0,400.276,0,400.276s16.538,36.981,50.812,53.078
		c15.412,7.238,31.751,9.003,45.101,8.771c9.35,23.505,22.147,47.191,39.371,67.388c-6.118,0.452-12.401,1.445-18.673,3.299
		c-36.314,10.735-58.247,44.792-58.247,44.792s36.932,16.659,73.246,5.926c15.97-4.722,29.155-13.956,38.918-22.815
		c10.15,6.564,21.249,12.047,33.473,16.015c-1.622,0.971-3.232,1.958-4.811,3.062c-31.067,21.646-41.119,60.889-41.119,60.889
		s40.297,4.149,71.365-17.503c15.16-10.563,25.282-25.304,31.709-37.639c42.238,4.479,75.491,13.278,101.754,24.096
		c-50.249,39.083-59.129,82.327-59.692,85.427c-1.798,9.823,4.711,19.245,14.536,21.04c1.103,0.197,2.195,0.298,3.276,0.298
		c8.518,0,16.086-6.041,17.74-14.686c0.579-2.824,9.411-41.075,60.238-73.538c50.828,32.463,59.66,70.714,60.238,73.538
		c1.654,8.645,9.223,14.686,17.74,14.686c1.081,0,2.174-0.101,3.276-0.298c9.824-1.795,16.333-11.217,14.535-21.04
		c-0.562-3.1-9.444-46.344-59.692-85.427c26.271-10.816,59.518-19.616,101.756-24.096c6.428,12.335,16.549,27.074,31.707,37.639
		c31.067,21.651,71.366,17.503,71.366,17.503s-10.053-39.242-41.119-60.889c-1.579-1.104-3.188-2.092-4.812-3.062
		c12.225-3.968,23.323-9.449,33.474-16.015c9.765,8.859,22.947,18.095,38.918,22.815c36.314,10.733,73.246-5.926,73.246-5.926
		s-21.934-34.057-58.246-44.792c-6.273-1.854-12.556-2.847-18.674-3.299c17.223-20.195,30.021-43.883,39.37-67.388
		c13.349,0.23,29.688-1.533,45.102-8.771c34.273-16.097,50.812-53.078,50.812-53.078S758.974,389.385,724.705,405.483z"/>
</g>
<g>
</g>
<g>
</g>
<g>
</g>
<g>
</g>
<g>
</g>
<g>
</g>
<g>
</g>
<g>
</g>
<g>
</g>
<g>
</g>
<g>
</g>
<g>
</g>
<g>
</g>
<g>
</g>
<g>
</g>
</svg>
