<?xml version='1.0' encoding='iso-8859-1'?>
<svg version="1.1" xmlns="http://www.w3.org/2000/svg" viewBox="0 0 292.34 292.34" xmlns:xlink="http://www.w3.org/1999/xlink" enable-background="new 0 0 292.34 292.34">
  <g>
    <g>
      <path d="m278.419,108.444v-37.97c0-24.362-19.141-43.503-43.503-43.503h-191.413c-24.362,0.001-43.503,19.142-43.503,43.504v151.391c0,24.362 19.141,43.503 43.503,43.503h191.413c24.362,0 43.503-19.141 43.503-43.503v-36.229c8.196-5.412 13.921-14.669 13.921-24.675v-27.842c0-10.024-5.725-19.264-13.921-24.676zm-3.48,52.517c0,6.96-5.22,12.181-12.181,12.181h-88.746c-6.96,0-12.181-5.22-12.181-12.181v-27.842c0-6.96 5.22-12.181 12.181-12.181h88.746c6.96,0 12.181,5.22 12.181,12.181v27.842zm-40.023,87.006h-191.413c-13.921,0-26.102-12.181-26.102-26.102v-151.39c0-13.921 12.181-26.102 26.102-26.102h191.413c13.921,0 26.102,12.181 26.102,26.102v33.062h-87.006c-15.661,0-29.582,13.921-29.582,29.582v27.842c0,15.661 13.921,29.582 29.582,29.582h87.006v31.322c0,13.921-12.181,26.102-26.102,26.102z"/>
      <path d="m175.752,140.079c-1.74,1.74-1.74,5.22-1.74,6.96 0,1.74 0,3.48 1.74,5.22 1.74,1.74 5.22,3.48 6.96,3.48 1.74,0 3.48-1.74 5.22-3.48 1.74,0 3.48-3.48 3.48-5.22 0-3.48-1.74-5.22-3.48-6.96-3.479-3.48-8.7-3.48-12.18,0z"/>
    </g>
  </g>
</svg>
