<?xml version="1.0" encoding="iso-8859-1"?>
<!-- Generator: Adobe Illustrator 18.0.0, SVG Export Plug-In . SVG Version: 6.00 Build 0)  -->
<!DOCTYPE svg PUBLIC "-//W3C//DTD SVG 1.1//EN" "http://www.w3.org/Graphics/SVG/1.1/DTD/svg11.dtd">
<svg version="1.1" id="Capa_1" xmlns="http://www.w3.org/2000/svg" xmlns:xlink="http://www.w3.org/1999/xlink" x="0px" y="0px"
	 viewBox="0 0 490 490" style="enable-background:new 0 0 490 490;" xml:space="preserve">
<g>
	<g>
		<path d="M245.221,348.125c-56.477,0-102.424-46.162-102.424-102.903s45.947-102.904,102.424-102.904
			c56.476,0,102.424,46.163,102.424,102.904S301.698,348.125,245.221,348.125z M245.221,162.318
			c-45.449,0-82.424,37.19-82.424,82.904c0,45.713,36.975,82.903,82.424,82.903c45.449,0,82.424-37.19,82.424-82.903
			C327.645,199.508,290.67,162.318,245.221,162.318z"/>
	</g>
	<g>
		<path d="M257.532,490h-0.001h-25.06c-24.58,0-44.579-20.078-44.58-44.758v-39.457c-5.296-1.908-10.519-4.091-15.625-6.532
			l-27.732,27.875c-8.42,8.466-19.62,13.128-31.536,13.128c-11.915,0.001-23.117-4.66-31.539-13.125l-17.721-17.814
			c-17.349-17.436-17.35-45.814-0.002-63.259l27.782-27.924c-2.442-5.154-4.627-10.43-6.534-15.782l-39.196-0.002
			c-11.919,0-23.117-4.661-31.537-13.125c-8.407-8.448-13.038-19.682-13.038-31.628v-25.192c0-24.675,19.996-44.753,44.574-44.758
			h39.199c1.908-5.354,4.092-10.629,6.532-15.781l-27.779-27.923c-8.407-8.449-13.039-19.683-13.039-31.629
			c0-11.944,4.63-23.178,13.037-31.629l17.722-17.813c8.411-8.455,19.612-13.111,31.54-13.111c11.926,0,23.126,4.655,31.538,13.109
			l27.733,27.876c5.104-2.439,10.327-4.623,15.624-6.53V44.757C187.892,20.078,207.889,0,232.469,0h25.06
			c24.581,0,44.579,20.078,44.579,44.757v39.459c5.297,1.908,10.52,4.092,15.624,6.532l27.733-27.876
			c8.414-8.466,19.615-13.13,31.535-13.13c11.918,0,23.12,4.663,31.542,13.131l17.718,17.806
			c17.349,17.438,17.35,45.817,0.004,63.262l-27.785,27.929c2.429,5.135,4.607,10.407,6.518,15.778l39.216,0.003
			c11.924,0,23.119,4.661,31.536,13.125c8.407,8.449,13.037,19.683,13.037,31.629l0.002,25.188c0,24.675-19.996,44.754-44.575,44.76
			h-39.215c-1.911,5.37-4.089,10.643-6.518,15.779l27.783,27.928c8.407,8.448,13.038,19.681,13.038,31.626
			c0,11.944-4.629,23.177-13.035,31.629l-17.723,17.814c-8.409,8.454-19.61,13.11-31.541,13.11
			c-11.927,0-23.127-4.655-31.539-13.108l-27.733-27.877c-5.105,2.441-10.327,4.624-15.622,6.53l-0.003,39.462
			c0.004,11.939-4.625,23.172-13.035,31.626C280.648,485.337,269.449,489.999,257.532,490z M170.307,377.165
			c1.595,0,3.201,0.383,4.678,1.17c8.275,4.411,16.958,8.042,25.81,10.792c4.162,1.293,6.998,5.144,6.998,9.502v46.613
			c0.001,13.706,11.071,24.856,24.679,24.856h25.059c6.582,0,12.772-2.579,17.431-7.263c4.672-4.697,7.245-10.943,7.243-17.588
			l0.003-46.621c0.001-4.358,2.836-8.209,6.999-9.502c8.849-2.749,17.531-6.379,25.803-10.789c3.873-2.063,8.64-1.349,11.736,1.763
			l32.826,32.995c4.647,4.671,10.838,7.244,17.43,7.244c6.594,0,12.785-2.573,17.432-7.244l17.722-17.814
			c4.671-4.697,7.244-10.946,7.244-17.595c0-6.648-2.573-12.895-7.245-17.59l-32.825-32.996c-3.07-3.086-3.778-7.81-1.747-11.66
			c4.353-8.251,7.961-16.986,10.726-25.966c1.285-4.174,5.143-7.021,9.51-7.021h46.393c13.606-0.003,24.677-11.155,24.677-24.859
			l-0.002-25.186c0-6.65-2.573-12.899-7.246-17.596c-4.655-4.681-10.838-7.258-17.412-7.258l-46.411-0.004
			c-4.367-0.001-8.223-2.849-9.509-7.021c-2.765-8.979-6.374-17.715-10.726-25.964c-2.032-3.851-1.324-8.575,1.747-11.661
			l32.825-32.995c9.649-9.703,9.649-25.491-0.001-35.191l-17.719-17.806c-4.661-4.687-10.852-7.266-17.433-7.266
			c-6.582,0-12.77,2.579-17.423,7.261l-32.831,32.999c-3.096,3.111-7.865,3.826-11.737,1.762
			c-8.267-4.408-16.95-8.039-25.806-10.792c-4.162-1.293-6.998-5.144-6.998-9.502V44.757c0-13.705-11.07-24.855-24.678-24.855
			h-25.06c-13.606,0-24.676,11.15-24.676,24.855v46.614c0,4.358-2.836,8.209-6.998,9.503c-8.856,2.751-17.539,6.382-25.808,10.79
			c-3.873,2.063-8.64,1.349-11.735-1.763l-32.825-32.995c-4.647-4.671-10.837-7.244-17.429-7.244
			c-6.592,0-12.783,2.573-17.432,7.246L77.845,94.72c-4.672,4.696-7.245,10.944-7.245,17.594c0.001,6.648,2.574,12.896,7.246,17.592
			L110.67,162.9c3.071,3.087,3.778,7.811,1.746,11.662c-4.384,8.306-7.998,17.04-10.743,25.961c-1.284,4.175-5.142,7.024-9.51,7.024
			H45.788c-13.605,0.003-24.675,11.153-24.675,24.856v25.192c0,6.649,2.573,12.896,7.245,17.592
			c4.659,4.682,10.846,7.261,17.422,7.261l46.383,0.002c4.368,0,8.226,2.85,9.51,7.024c2.742,8.912,6.356,17.647,10.744,25.962
			c2.032,3.851,1.324,8.575-1.747,11.662l-32.824,32.993c-9.649,9.702-9.65,25.489,0.001,35.188l17.72,17.814
			c4.659,4.683,10.85,7.261,17.431,7.261c6.581,0,12.77-2.579,17.427-7.262l32.826-32.995
			C165.165,378.173,167.72,377.165,170.307,377.165z"/>
	</g>
</g>
<g>
</g>
<g>
</g>
<g>
</g>
<g>
</g>
<g>
</g>
<g>
</g>
<g>
</g>
<g>
</g>
<g>
</g>
<g>
</g>
<g>
</g>
<g>
</g>
<g>
</g>
<g>
</g>
<g>
</g>
</svg>
