<?xml version="1.0" encoding="iso-8859-1"?>
<!-- Generator: Adobe Illustrator 19.0.0, SVG Export Plug-In . SVG Version: 6.00 Build 0)  -->
<svg version="1.1" id="Layer_1" xmlns="http://www.w3.org/2000/svg" xmlns:xlink="http://www.w3.org/1999/xlink" x="0px" y="0px"
	 viewBox="0 0 511.996 511.996" style="enable-background:new 0 0 511.996 511.996;" xml:space="preserve">
<g>
	<g>
		<g>
			<path d="M249.08,167.117c1.604,2.227,4.181,3.55,6.929,3.55h0.026c2.756-0.017,5.342-1.357,6.929-3.601l11.785-16.631
				c20.523-28.732,20.523-67.354,0.009-96.06l-10.223-14.43l-0.009-31.42c0-4.71-3.823-8.525-8.533-8.525
				c-4.719,0-8.533,3.823-8.533,8.533l0.009,31.377l-10.394,14.438c-20.523,28.74-20.523,67.354,0.026,96.128L249.08,167.117z"/>
			<path d="M163.539,150.013l2.85,17.553c5.811,34.842,33.118,62.148,67.985,67.959l20.25,3.294
				c0.452,0.077,0.913,0.111,1.365,0.111h0.009h0.009c0.452,0,0.913-0.034,1.374-0.111l20.267-3.302
				c34.842-5.803,62.148-33.109,67.959-67.985l2.85-17.528l24.499-24.508c3.337-3.337,3.337-8.738,0-12.075
				c-3.328-3.319-8.73-3.328-12.066,0.009l-24.525,24.533l-17.391,2.97c-28.749,4.787-52.326,24.243-62.976,50.466
				c-10.641-26.223-34.219-45.67-62.942-50.458l-17.425-2.978l-24.525-24.533c-3.328-3.337-8.738-3.328-12.066-0.009
				c-3.336,3.337-3.336,8.738,0,12.075L163.539,150.013z"/>
			<path d="M163.539,243.878l2.859,17.553c5.803,34.842,33.109,62.148,67.977,67.959l20.25,3.294
				c0.461,0.077,0.913,0.111,1.374,0.111h0.009c0.452,0,0.913-0.034,1.374-0.111l20.267-3.302
				c34.842-5.803,62.148-33.109,67.959-67.985l2.85-17.527l24.508-24.508c3.328-3.336,3.328-8.738,0-12.066
				c-3.337-3.328-8.738-3.337-12.075,0l-24.525,24.533l-17.391,2.97c-28.749,4.787-52.326,24.243-62.976,50.466
				c-10.641-26.223-34.219-45.67-62.942-50.458l-17.425-2.978l-24.525-24.533c-3.328-3.337-8.73-3.328-12.066,0
				c-3.336,3.328-3.336,8.73,0,12.066L163.539,243.878z"/>
			<path d="M360.888,301.163l-24.525,24.533l-17.391,2.97c-28.749,4.787-52.326,24.243-62.976,50.466
				c-10.633-26.223-34.219-45.67-62.942-50.458l-17.425-2.978l-24.525-24.533c-3.328-3.337-8.73-3.328-12.066-0.009
				c-3.336,3.337-3.336,8.738,0,12.075l24.499,24.516l2.859,17.553c5.129,30.788,27.068,55.671,56.158,65.05
				c-0.41,2.082-0.683,4.181-0.683,6.315c0,15.855,10.923,29.107,25.6,32.922v43.878c0,4.71,3.823,8.533,8.533,8.533
				s8.533-3.823,8.533-8.533v-43.878c14.677-3.814,25.6-17.067,25.6-32.922c0-2.133-0.273-4.233-0.683-6.315
				c29.082-9.378,51.012-34.261,56.149-65.084l2.85-17.527l24.508-24.508c3.328-3.337,3.328-8.738,0-12.075
				C369.626,297.835,364.225,297.826,360.888,301.163z M256.005,443.729c-9.412,0-17.067-7.654-17.067-17.067
				c0-0.879,0.077-1.758,0.222-2.628l15.462,2.517c0.461,0.077,0.913,0.111,1.374,0.111h0.009c0.452,0,0.913-0.034,1.374-0.111
				l15.471-2.517c0.145,0.87,0.222,1.749,0.222,2.628C273.072,436.075,265.417,443.729,256.005,443.729z"/>
		</g>
	</g>
</g>
<g>
</g>
<g>
</g>
<g>
</g>
<g>
</g>
<g>
</g>
<g>
</g>
<g>
</g>
<g>
</g>
<g>
</g>
<g>
</g>
<g>
</g>
<g>
</g>
<g>
</g>
<g>
</g>
<g>
</g>
</svg>
