<?xml version="1.0" encoding="iso-8859-1"?>
<!-- Generator: Adobe Illustrator 19.0.0, SVG Export Plug-In . SVG Version: 6.00 Build 0)  -->
<svg version="1.1" id="Layer_1" xmlns="http://www.w3.org/2000/svg" xmlns:xlink="http://www.w3.org/1999/xlink" x="0px" y="0px"
	 viewBox="0 0 512.002 512.002" style="enable-background:new 0 0 512.002 512.002;" xml:space="preserve">
<g>
	<g>
		<path d="M439.826,128.382c-3.617,0-7.179,0.237-10.687,0.65c12.132-15.429,19.396-34.859,19.396-55.964
			c0-4.81-3.898-8.709-8.709-8.709c-18.552,0-35.813,5.606-50.199,15.199c0.596-4.223,0.91-8.515,0.91-12.855
			c0-24.234-9.438-47.019-26.574-64.155C362.33,0.917,360.115,0,357.805,0c-2.311,0-4.524,0.917-6.159,2.551
			c-20.945,20.945-29.483,49.666-25.625,76.955c-14.757-9.852-32.09-15.146-50.236-15.145c-4.811,0-8.709,3.899-8.709,8.709
			c0,21.105,7.263,40.534,19.395,55.963c-3.508-0.413-7.069-0.65-10.686-0.65c-4.811,0-8.709,3.899-8.709,8.709
			c0,21.105,7.264,40.534,19.395,55.964c-3.508-0.413-7.069-0.65-10.686-0.65c-4.811,0-8.709,3.899-8.709,8.709
			c0,21.105,7.264,40.534,19.395,55.964c-3.508-0.413-7.069-0.65-10.686-0.65c-4.811,0-8.709,3.899-8.709,8.709
			c0,47.089,36.063,85.904,82.02,90.303v23.557c-4.566-4.945-10.313-9.357-17.573-12.532c-4.403-1.928-9.54,0.081-11.469,4.488
			c-1.927,4.407,0.081,9.541,4.488,11.469c21.573,9.439,24.346,36.874,24.554,39.36v81.513c0,4.81,3.898,8.709,8.709,8.709
			s8.709-3.899,8.709-8.709V355.436c45.957-4.398,82.022-43.212,82.022-90.303c0-4.81-3.898-8.709-8.709-8.709
			c-3.617,0-7.179,0.237-10.687,0.65c12.132-15.429,19.396-34.859,19.396-55.964c0-4.809-3.898-8.709-8.709-8.709
			c-3.617,0-7.179,0.237-10.687,0.65c12.132-15.429,19.396-34.859,19.396-55.964C448.535,132.281,444.637,128.382,439.826,128.382z
			 M430.532,82.358c-4.193,33.012-30.426,59.245-63.44,63.437c2.019-16.062,9.263-30.913,20.894-42.545
			C399.618,91.618,414.47,84.378,430.532,82.358z M347.119,163.148c3.508,0.413,7.069,0.65,10.686,0.65
			c3.617,0,7.179-0.237,10.687-0.65c-4.169,5.302-7.768,11.066-10.687,17.22C354.887,174.214,351.286,168.448,347.119,163.148z
			 M368.492,227.169c-4.169,5.302-7.768,11.067-10.687,17.22c-2.918-6.154-6.519-11.919-10.686-17.22
			c3.508,0.413,7.069,0.65,10.686,0.65C361.422,227.819,364.984,227.583,368.492,227.169z M357.809,21.848
			c9.929,12.785,15.311,28.408,15.311,44.857c0,16.449-5.381,32.072-15.311,44.858C337.43,85.255,337.43,48.156,357.809,21.848z
			 M285.079,82.365c33.007,4.194,59.236,30.422,63.43,63.43C315.503,141.6,289.273,115.372,285.079,82.365z M285.079,146.387
			c33.007,4.194,59.236,30.423,63.43,63.43C315.503,205.622,289.273,179.393,285.079,146.387z M285.079,210.408
			c33.007,4.194,59.236,30.423,63.43,63.43C315.503,269.643,289.273,243.415,285.079,210.408z M285.079,274.429
			c33.007,4.195,59.236,30.423,63.43,63.43C315.504,333.664,289.275,307.436,285.079,274.429z M357.805,308.412
			c-2.918-6.154-6.519-11.919-10.686-17.22c3.508,0.413,7.069,0.65,10.686,0.65c3.617,0,7.179-0.237,10.687-0.65
			C364.323,296.493,360.724,302.257,357.805,308.412z M430.531,274.429c-4.195,33.007-30.423,59.235-63.431,63.43
			C371.295,304.853,397.523,278.623,430.531,274.429z M430.531,210.408c-4.195,33.007-30.423,59.235-63.431,63.43
			C371.295,240.831,397.523,214.602,430.531,210.408z M367.1,209.817c4.195-33.007,30.423-59.236,63.431-63.43
			C426.336,179.393,400.108,205.622,367.1,209.817z"/>
	</g>
</g>
<g>
	<g>
		<path d="M244.469,344.612c-2.049-4.356-7.235-6.225-11.589-4.176c-36.819,17.327-57.903,43.55-69.976,67.523V291.415
			c45.957-4.398,82.022-43.212,82.022-90.303c0-4.81-3.898-8.709-8.709-8.709c-3.617,0-7.179,0.237-10.687,0.65
			c12.132-15.429,19.396-34.859,19.396-55.964c0-4.81-3.898-8.709-8.709-8.709c-3.617,0-7.179,0.237-10.687,0.65
			c12.132-15.429,19.396-34.859,19.396-55.964c0-4.809-3.898-8.709-8.709-8.709c-18.552,0-35.813,5.606-50.199,15.199
			c0.596-4.223,0.91-8.515,0.91-12.855c0-24.234-9.438-47.019-26.574-64.155C158.72,0.917,156.506,0,154.196,0
			c-2.31,0-4.524,0.917-6.159,2.551c-20.945,20.945-29.483,49.666-25.625,76.955c-14.757-9.852-32.09-15.146-50.236-15.145
			c-4.811,0-8.709,3.899-8.709,8.709c0,21.105,7.263,40.534,19.395,55.963c-3.508-0.413-7.069-0.65-10.686-0.65
			c-4.811,0-8.709,3.899-8.709,8.709c0,21.105,7.264,40.534,19.395,55.964c-3.508-0.413-7.069-0.65-10.686-0.65
			c-4.811,0-8.709,3.899-8.709,8.709c0,47.089,36.063,85.904,82.02,90.303v33.589c-4.566-4.945-10.313-9.357-17.573-12.532
			c-4.404-1.928-9.54,0.081-11.469,4.488c-1.927,4.407,0.081,9.541,4.488,11.469c21.573,9.439,24.346,36.874,24.554,39.36v108.483
			c-0.207,5.323-0.059,8.822,0,9.892v17.129c0,4.81,3.898,8.709,8.709,8.709s8.709-3.899,8.709-8.709v-26.609
			c0.369-8.997,1.907-24.139,7.459-41.201c11.829-36.338,35.356-63.015,69.933-79.285
			C244.649,354.151,246.516,348.963,244.469,344.612z M226.923,210.408c-4.196,33.007-30.424,59.235-63.431,63.43
			C167.687,240.831,193.915,214.602,226.923,210.408z M226.923,146.387c-4.196,33.007-30.424,59.235-63.431,63.43
			C167.687,176.81,193.915,150.581,226.923,146.387z M154.196,180.368c-2.918-6.154-6.519-11.919-10.686-17.22
			c3.508,0.413,7.068,0.65,10.686,0.65c3.617,0,7.179-0.237,10.687-0.65C160.715,168.45,157.116,174.214,154.196,180.368z
			 M226.924,82.358c-4.194,33.012-30.427,59.245-63.44,63.437c2.019-16.062,9.263-30.913,20.894-42.545
			C196.01,91.618,210.862,84.378,226.924,82.358z M154.201,21.848c9.929,12.785,15.311,28.408,15.311,44.857
			c0,16.449-5.381,32.072-15.311,44.858C133.822,85.255,133.822,48.156,154.201,21.848z M81.471,82.365
			c33.007,4.194,59.235,30.422,63.43,63.43C111.895,141.6,85.665,115.372,81.471,82.365z M81.471,146.387
			c33.007,4.194,59.235,30.423,63.43,63.43C111.895,205.622,85.665,179.393,81.471,146.387z M81.471,210.408
			c33.007,4.195,59.236,30.423,63.43,63.43C111.895,269.643,85.665,243.415,81.471,210.408z M154.196,244.39
			c-2.918-6.154-6.519-11.919-10.686-17.22c3.508,0.413,7.068,0.65,10.686,0.65c3.617,0,7.179-0.237,10.687-0.65
			C160.715,232.472,157.116,238.236,154.196,244.39z"/>
	</g>
</g>
<g>
</g>
<g>
</g>
<g>
</g>
<g>
</g>
<g>
</g>
<g>
</g>
<g>
</g>
<g>
</g>
<g>
</g>
<g>
</g>
<g>
</g>
<g>
</g>
<g>
</g>
<g>
</g>
<g>
</g>
</svg>
