<?xml version="1.0" encoding="iso-8859-1"?>
<!-- Generator: Adobe Illustrator 19.0.0, SVG Export Plug-In . SVG Version: 6.00 Build 0)  -->
<svg version="1.1" id="Layer_1" xmlns="http://www.w3.org/2000/svg" xmlns:xlink="http://www.w3.org/1999/xlink" x="0px" y="0px"
	 viewBox="0 0 512 512" style="enable-background:new 0 0 512 512;" xml:space="preserve">
<g transform="translate(1 1)">
	<g>
		<g>
			<path d="M248.173,166.253c1.707,1.707,4.267,3.413,6.827,3.413c2.56,0,5.12-1.707,6.827-3.413l11.947-16.213
				c20.48-29.013,20.48-67.413,0-96.427l-10.24-14.629V7.533C263.533,2.413,260.12-1,255-1c-5.12,0-8.533,3.413-8.533,8.533v30.598
				l-10.24,14.629c-20.48,29.013-20.48,67.413,0,96.427L248.173,166.253z M249.88,63l5.12-6.827L260.12,63
				c16.213,22.187,16.213,52.907,0,75.947l-5.12,6.827l-5.12-6.827C233.667,116.76,233.667,86.04,249.88,63z"/>
			<path d="M161.475,147.821l3.072,18.432c5.973,34.987,33.28,62.293,68.267,68.267l20.48,3.413c0.853,0,0.853,0,1.707,0
				s0.853,0,1.707,0l20.48-3.413c34.987-5.973,62.293-33.28,68.267-68.267l3.072-18.432l23.381-23.381
				c3.413-3.413,3.413-8.533,0-11.947s-8.533-3.413-11.947,0l-23.381,23.381l-18.432,3.072
				c-28.788,4.915-52.364,24.281-63.147,50.477c-10.782-26.197-34.358-45.562-63.147-50.477l-18.432-3.072l-23.381-23.381
				c-3.413-3.413-8.533-3.413-11.947,0s-3.413,8.533,0,11.947L161.475,147.821z M266.947,210.627
				c4.267-27.307,26.453-49.493,53.76-53.76l8.533-1.707l-1.707,8.533c-4.267,27.307-26.453,49.493-53.76,53.76l-8.533,1.707
				L266.947,210.627z M189.293,156.867c27.307,4.267,49.493,26.453,53.76,53.76l1.707,8.533l-8.533-1.707
				c-27.307-4.267-49.493-26.453-53.76-53.76l-1.707-8.533L189.293,156.867z"/>
			<path d="M359.96,206.36l-23.381,23.381l-18.432,3.072c-28.788,4.915-52.364,24.281-63.147,50.477
				c-10.782-26.196-34.358-45.562-63.147-50.477l-18.432-3.072L150.04,206.36c-3.413-3.413-8.533-3.413-11.947,0
				s-3.413,8.533,0,11.947l23.381,23.381l3.072,18.432c5.973,34.987,33.28,62.293,68.267,68.267l20.48,3.413
				c0.853,0,0.853,0,1.707,0s0.853,0,1.707,0l20.48-3.413c34.987-5.973,62.293-33.28,68.267-68.267l3.072-18.432l23.381-23.381
				c3.413-3.413,3.413-8.533,0-11.947S363.373,202.947,359.96,206.36z M236.227,311.32c-27.307-4.267-49.493-26.453-53.76-53.76
				l-1.707-8.533l8.533,1.707c27.307,4.267,49.493,26.453,53.76,53.76l1.707,8.533L236.227,311.32z M327.533,257.56
				c-4.267,27.307-26.453,49.493-53.76,53.76l-8.533,1.707l1.707-8.533c4.267-27.307,26.453-49.493,53.76-53.76l8.533-1.707
				L327.533,257.56z"/>
			<path d="M359.96,300.227l-23.381,23.381l-18.432,3.072c-28.788,4.915-52.364,24.281-63.147,50.477
				c-10.782-26.196-34.358-45.562-63.147-50.477l-18.432-3.072l-23.381-23.381c-3.413-3.413-8.533-3.413-11.947,0
				s-3.413,8.533,0,11.947l23.381,23.381l3.072,18.432c5.312,31.113,27.502,56.139,56.955,65.503
				c-0.405,1.975-0.635,4.019-0.635,6.177c0,15.829,10.921,29.232,25.6,33.046v43.754c0,5.12,3.413,8.533,8.533,8.533
				c5.12,0,8.533-3.413,8.533-8.533v-43.758c14.679-3.832,25.6-17.347,25.6-33.896c0-1.708-0.205-3.515-0.553-5.35
				c29.412-9.384,51.566-34.392,56.873-65.477l3.072-18.432l23.381-23.381c3.413-3.413,3.413-8.533,0-11.947
				S363.373,296.813,359.96,300.227z M182.467,351.427l-1.707-8.533l8.533,1.707c27.307,4.267,49.493,26.453,53.76,53.76
				l1.674,8.372l-8.501-1.546C208.92,400.92,186.733,378.733,182.467,351.427z M272.067,425.667c0,9.387-7.68,17.067-17.067,17.067
				c-9.387,0-17.067-7.68-17.067-17.067c0-0.853,0-1.707,0-2.56l15.36,2.56c0.427,0,0.64,0,0.853,0c0.213,0,0.427,0,0.853,0
				c0.853,0,0.853,0,1.707,0l15.36-2.56C272.067,423.96,272.067,424.813,272.067,425.667z M327.533,351.427
				c-4.011,25.673-23.864,46.816-48.918,52.8c-1.061-0.168-2.135-0.144-3.135,0.106c-0.361,0.361-0.568,0.563-0.752,0.684
				c-0.319,0.055-0.634,0.12-0.954,0.17l-8.501,1.546l1.674-8.372c4.267-27.307,26.453-49.493,53.76-53.76l8.533-1.707
				L327.533,351.427z"/>
		</g>
	</g>
</g>
<g>
</g>
<g>
</g>
<g>
</g>
<g>
</g>
<g>
</g>
<g>
</g>
<g>
</g>
<g>
</g>
<g>
</g>
<g>
</g>
<g>
</g>
<g>
</g>
<g>
</g>
<g>
</g>
<g>
</g>
</svg>
